<svg width="24" height="24" viewBox="0 0 24 24" fill="none" xmlns="http://www.w3.org/2000/svg">
<path fill-rule="evenodd" clip-rule="evenodd" d="M3 2C3.51284 2 3.93551 2.38604 3.99327 2.88338L4 3V15C4 17.6888 6.12231 19.8818 8.78311 19.9954L9 20H21C21.5523 20 22 20.4477 22 21C22 21.5128 21.614 21.9355 21.1166 21.9933L21 22H9C5.21455 22 2.1309 18.9952 2.00406 15.2407L2 15V3C2 2.44772 2.44772 2 3 2Z" fill="#F61C7A"/>
<path fill-rule="evenodd" clip-rule="evenodd" d="M14.219 7.34108C15.4477 5.80525 17.6888 5.55624 19.2246 6.78491C19.3615 6.89443 19.49 7.01384 19.6092 7.14212L19.7808 7.34108L21.7808 10.3755C22.1258 10.8068 22.0559 11.4361 21.6246 11.7811C21.2265 12.0996 20.6597 12.0645 20.3035 11.718L20.219 11.6249L18.219 8.59047C18.147 8.50044 18.0652 8.41867 17.9752 8.34664C17.3415 7.83968 16.4339 7.90656 15.8803 8.47752L15.7808 8.59047L14.907 9.88757C13.9858 11.039 12.3675 11.3323 11.1074 10.6035L10.9163 10.4844C10.6068 10.2986 10.2136 10.373 9.99123 10.6439L9.92988 10.731L7.8574 15.5147C7.57325 15.9883 6.95899 16.1419 6.48541 15.8577C6.04566 15.5939 5.88184 15.0454 6.08818 14.5892L6.14241 14.4857L8.21489 9.70197C8.98748 8.41432 10.6576 7.99678 11.9453 8.76937L12.0546 8.83855C12.4369 9.09343 12.9397 9.04155 13.262 8.72965L13.3452 8.63818L14.219 7.34108Z" fill="#FCDDEC"/>
</svg>
