<svg width="24" height="24" viewBox="0 0 24 24" fill="none" xmlns="http://www.w3.org/2000/svg">
<path fill-rule="evenodd" clip-rule="evenodd" d="M5 13C5 12.4477 4.55228 12 4 12C3.44772 12 3 12.4477 3 13C3 16.866 6.13401 20 10 20H17.5852L16.2926 21.2928L16.2094 21.3871C15.9043 21.7793 15.932 22.3466 16.2925 22.7071C16.683 23.0976 17.3161 23.0977 17.7067 22.7072L20.7071 19.7072C20.7365 19.6777 20.7641 19.6465 20.7896 19.6137L20.7903 19.6129C20.8459 19.5413 20.8905 19.4639 20.924 19.383C20.973 19.265 21 19.1357 21 19C21 18.7441 20.9024 18.4881 20.7071 18.2928L17.7067 15.2928L17.6125 15.2097C17.2202 14.9047 16.6529 14.9324 16.2925 15.2929L16.2093 15.3871C15.9043 15.7795 15.9321 16.3467 16.2926 16.7072L17.5852 18H10L9.78311 17.9954C7.12231 17.8818 5 15.6888 5 13Z" fill="#E8F9DC"/>
<path fill-rule="evenodd" clip-rule="evenodd" d="M7.70674 1.29289C7.31622 0.902369 6.68305 0.902369 6.29253 1.29289L3.29253 4.29289L3.2896 4.29621C3.26253 4.32353 3.23702 4.35242 3.21322 4.3827L3.20934 4.3871C2.90431 4.77939 2.93204 5.34662 3.29253 5.70711L6.29253 8.70711L6.38673 8.7903C6.77903 9.09532 7.34626 9.06759 7.70674 8.70711L7.78993 8.6129C8.09495 8.22061 8.06722 7.65338 7.70674 7.29289L6.41394 6H14L14.2169 6.00462C16.8777 6.11818 19 8.31124 19 11C19 11.5523 19.4477 12 20 12C20.5523 12 21 11.5523 21 11C21 7.13401 17.866 4 14 4H6.41394L7.70674 2.70711L7.78993 2.6129C8.09495 2.22061 8.06722 1.65338 7.70674 1.29289Z" fill="#908FEC"/>
</svg>
