<svg width="24" height="24" viewBox="0 0 24 24" fill="none" xmlns="http://www.w3.org/2000/svg">
<path fill-rule="evenodd" clip-rule="evenodd" d="M6.99327 3.88338C6.93551 3.38604 6.51284 3 6 3C5.44772 3 5 3.44772 5 4V6L5.00673 6.11662C5.06449 6.61396 5.48716 7 6 7C6.55228 7 7 6.55228 7 6V4L6.99327 3.88338ZM18.9933 3.88338C18.9355 3.38604 18.5128 3 18 3C17.4477 3 17 3.44772 17 4V6L17.0067 6.11662C17.0645 6.61396 17.4872 7 18 7C18.5523 7 19 6.55228 19 6V4L18.9933 3.88338ZM6 10C6.51284 10 6.93551 10.386 6.99327 10.8834L7 11V20C7 20.5523 6.55228 21 6 21C5.48716 21 5.06449 20.614 5.00673 20.1166L5 20V11C5 10.4477 5.44772 10 6 10ZM12.9933 3.88338C12.9355 3.38604 12.5128 3 12 3C11.4477 3 11 3.44772 11 4V13L11.0067 13.1166C11.0645 13.614 11.4872 14 12 14C12.5523 14 13 13.5523 13 13V4L12.9933 3.88338ZM12 18C12.5128 18 12.9355 18.386 12.9933 18.8834L13 19V20C13 20.5523 12.5523 21 12 21C11.4872 21 11.0645 20.614 11.0067 20.1166L11 20V19C11 18.4477 11.4477 18 12 18ZM18.9933 11.8834C18.9355 11.386 18.5128 11 18 11C17.4477 11 17 11.4477 17 12V20L17.0067 20.1166C17.0645 20.614 17.4872 21 18 21C18.5523 21 19 20.5523 19 20V12L18.9933 11.8834Z" fill="#908FEC"/>
<path fill-rule="evenodd" clip-rule="evenodd" d="M7 5H5C3.89544 5 3 5.89544 3 7V10C3 11.1046 3.89543 12 5 12H7C8.10457 12 9 11.1046 9 10V7C9 5.89544 8.10456 5 7 5ZM13 12H11C9.89542 12 9 12.8954 9 14V17C9 18.1046 9.89542 19 11 19H13C14.1046 19 15 18.1046 15 17V14C15 12.8954 14.1046 12 13 12ZM17 5H19C20.1046 5 21 5.89543 21 7V11C21 12.1046 20.1046 13 19 13H17C15.8954 13 15 12.1046 15 11V7C15 5.89543 15.8954 5 17 5Z" fill="#F61C7A"/>
</svg>
