<svg width="24" height="24" viewBox="0 0 24 24" fill="none" xmlns="http://www.w3.org/2000/svg">
<path fill-rule="evenodd" clip-rule="evenodd" d="M13 5C12.4477 5 12 4.55228 12 4C12 3.44772 12.4477 3 13 3C16.866 3 20 6.13401 20 10V17.5852L21.2928 16.2926L21.3871 16.2094C21.7793 15.9043 22.3466 15.932 22.7071 16.2925C23.0976 16.683 23.0977 17.3161 22.7072 17.7067L19.7072 20.7071C19.6777 20.7365 19.6465 20.7641 19.6137 20.7896L19.6129 20.7903C19.5413 20.8459 19.4639 20.8905 19.383 20.924C19.265 20.973 19.1357 21 19 21C18.7441 21 18.4881 20.9024 18.2928 20.7071L15.2928 17.7067L15.2097 17.6125C14.9047 17.2202 14.9324 16.6529 15.2929 16.2925L15.3871 16.2093C15.7795 15.9043 16.3467 15.9321 16.7072 16.2926L18 17.5852V10L17.9954 9.78311C17.8818 7.12231 15.6888 5 13 5Z" fill="#E8F9DC"/>
<path fill-rule="evenodd" clip-rule="evenodd" d="M1.29289 7.70662C0.902369 7.31609 0.902369 6.68293 1.29289 6.2924L4.29289 3.2924L4.29621 3.28948C4.32353 3.2624 4.35242 3.2369 4.3827 3.2131L4.3871 3.20922C4.77939 2.90419 5.34662 2.93192 5.70711 3.2924L8.70711 6.2924L8.7903 6.38661C9.09532 6.7789 9.06759 7.34613 8.70711 7.70662L8.6129 7.78981C8.22061 8.09483 7.65338 8.0671 7.29289 7.70662L6 6.41381L6 13.9999L6.00462 14.2168C6.11818 16.8776 8.31124 18.9999 11 18.9999C11.5523 18.9999 12 19.4476 12 19.9999C12 20.5522 11.5523 20.9999 11 20.9999C7.13401 20.9999 4 17.8659 4 13.9999L4 6.41381L2.70711 7.70662L2.6129 7.78981C2.22061 8.09483 1.65338 8.0671 1.29289 7.70662Z" fill="#F178B6"/>
</svg>
