<svg width="48" height="48" viewBox="0 0 48 48" fill="none" xmlns="http://www.w3.org/2000/svg">
<circle cx="24" cy="24" r="24" fill="#1B9DF0"/>
<path d="M19.608 36.6602C30.252 36.6602 36.072 27.8402 36.072 20.1962C36.072 19.9442 36.072 19.6922 36.06 19.4522C37.188 18.6362 38.172 17.6162 38.952 16.4522C37.92 16.9082 36.804 17.2202 35.628 17.3642C36.828 16.6442 37.74 15.5162 38.172 14.1602C37.056 14.8202 35.82 15.3002 34.5 15.5642C33.444 14.4362 31.944 13.7402 30.276 13.7402C27.084 13.7402 24.492 16.3322 24.492 19.5242C24.492 19.9802 24.54 20.4242 24.648 20.8442C19.836 20.6042 15.576 18.3002 12.72 14.7962C12.228 15.6482 11.94 16.6442 11.94 17.7002C11.94 19.7042 12.96 21.4802 14.52 22.5122C13.572 22.4882 12.684 22.2242 11.904 21.7922C11.904 21.8162 11.904 21.8402 11.904 21.8642C11.904 24.6722 13.896 27.0002 16.548 27.5402C16.068 27.6722 15.552 27.7442 15.024 27.7442C14.652 27.7442 14.292 27.7082 13.932 27.6362C14.664 29.9402 16.8 31.6082 19.332 31.6562C17.352 33.2042 14.856 34.1282 12.144 34.1282C11.676 34.1282 11.22 34.1042 10.764 34.0442C13.296 35.7002 16.344 36.6602 19.608 36.6602Z" fill="white"/>
</svg>
