<svg width="24" height="24" viewBox="0 0 24 24" fill="none" xmlns="http://www.w3.org/2000/svg">
<path fill-rule="evenodd" clip-rule="evenodd" d="M19.2 5.40006C19.5314 4.95823 20.1582 4.86869 20.6 5.20006C21.0079 5.50594 21.1155 6.06355 20.8691 6.49503L20.8 6.60006L13.3174 16.7997C13.1777 16.986 13.0168 17.1553 12.838 17.3044C11.6141 18.3243 9.81806 18.2045 8.73876 17.0623L8.61277 16.9203L5.2318 12.6402C4.87824 12.216 4.93556 11.5854 5.35984 11.2318C5.75148 10.9055 6.31889 10.9292 6.68196 11.2685L6.76825 11.3599L10.1492 15.6399C10.5028 16.0642 11.1333 16.1215 11.5576 15.7679L11.6424 15.6885L11.7174 15.5997L19.2 5.40006Z" fill="#121826"/>
</svg>
