<svg width="24" height="24" viewBox="0 0 24 24" fill="none" xmlns="http://www.w3.org/2000/svg">
<path d="M15 3H9C5.68629 3 3 5.68629 3 9V15C3 18.3137 5.68629 21 9 21H15C18.3137 21 21 18.3137 21 15V9C21 5.68629 18.3137 3 15 3Z" fill="#E5E6EB"/>
<path fill-rule="evenodd" clip-rule="evenodd" d="M8 12.9998C8.55228 12.9998 9 13.4476 9 13.9998V15.9998C9 16.5521 8.55228 16.9998 8 16.9998C7.44772 16.9998 7 16.5521 7 15.9998V13.9998C7 13.4476 7.44772 12.9998 8 12.9998ZM12 10.9998C12.5523 10.9998 13 11.4476 13 11.9998V15.9998C13 16.5521 12.5523 16.9998 12 16.9998C11.4477 16.9998 11 16.5521 11 15.9998V11.9998C11 11.4476 11.4477 10.9998 12 10.9998ZM16 14.9998C16.5523 14.9998 17 15.4476 17 15.9998C17 16.5521 16.5523 16.9998 16 16.9998C15.4477 16.9998 15 16.5521 15 15.9998C15 15.4476 15.4477 14.9998 16 14.9998ZM17 8.99985C15.8954 8.99985 15 8.10442 15 6.99985V5.41406C15 4.86178 15.4477 4.41406 16 4.41406C16.2652 4.41406 16.5196 4.51942 16.7071 4.70696L19.2929 7.29274C19.6834 7.68327 19.6834 8.31643 19.2929 8.70696C19.1054 8.89449 18.851 8.99985 18.5858 8.99985H17Z" fill="#8198A5"/>
</svg>
