<svg width="24" height="24" viewBox="0 0 24 24" fill="none" xmlns="http://www.w3.org/2000/svg">
<path fill-rule="evenodd" clip-rule="evenodd" d="M8 11V17H4V11H8ZM14 11V17H10V11H14ZM20 17V11H16V17H20Z" fill="#E5E6EB"/>
<path fill-rule="evenodd" clip-rule="evenodd" d="M12.37 2.06061C12.17 1.9798 11.83 1.9798 11.63 2.06061L2.63 5.69695C2.28 5.83837 2 6.2525 2 6.63634V9.9899C2 10.5455 2.45 11 3 11H21C21.55 11 22 10.5455 22 9.9899V6.63634C22 6.2525 21.72 5.83837 21.37 5.69695L12.37 2.06061ZM14 7C14 8.10457 13.1046 9 12 9C10.8954 9 10 8.10457 10 7C10 5.89543 10.8954 5 12 5C13.1046 5 14 5.89543 14 7ZM2 18V20C1.44772 20 1 20.4477 1 21C1 21.5523 1.44772 22 2 22H22C22.5523 22 23 21.5523 23 21C23 20.4477 22.5523 20 22 20V18C22 17.45 21.55 17 21 17H3C2.45 17 2 17.45 2 18Z" fill="#9EA3AE"/>
</svg>
