<svg width="48" height="48" viewBox="0 0 48 48" fill="none" xmlns="http://www.w3.org/2000/svg">
<path d="M24 0C10.7516 0 0 10.7516 0 24C0 37.2484 10.7516 48 24 48C37.2484 48 48 37.2484 48 24C48 10.7516 37.2484 0 24 0Z" fill="#1ED760"/>
<path fill-rule="evenodd" clip-rule="evenodd" d="M39.3483 21.5902C38.8451 21.5902 38.5354 21.4644 38.0999 21.2128C31.2096 17.0999 18.8903 16.1128 10.9161 18.3386C10.8582 18.3547 10.798 18.3723 10.7356 18.3906L10.7356 18.3906C10.4223 18.4825 10.0551 18.5902 9.66768 18.5902C8.39026 18.5902 7.41284 17.5934 7.41284 16.3063C7.41284 14.9902 8.22574 14.245 9.09671 13.9934C12.5032 12.9967 16.3161 12.5225 20.4677 12.5225C27.5322 12.5225 34.9354 13.9934 40.3451 17.1483C41.0999 17.5838 41.5935 18.1838 41.5935 19.3354C41.5935 20.6515 40.529 21.5902 39.3483 21.5902ZM36.3483 28.9644C35.9073 28.9644 35.5926 28.7934 35.287 28.6274L35.287 28.6273C35.2439 28.604 35.201 28.5807 35.158 28.5579C29.1096 24.9773 20.0903 23.5354 12.0677 25.7128C11.9448 25.7461 11.8369 25.7793 11.7365 25.8103L11.7364 25.8103C11.4572 25.8963 11.2364 25.9644 10.9161 25.9644C9.88058 25.9644 9.03865 25.1225 9.03865 24.087C9.03865 23.0515 9.54187 22.3644 10.5386 22.0838C13.229 21.3289 15.9774 20.7676 20.0032 20.7676C26.2838 20.7676 32.3516 22.3257 37.1322 25.1708C37.9161 25.6354 38.2257 26.2354 38.2257 27.0773C38.2161 28.1225 37.4032 28.9644 36.3483 28.9644ZM32.7096 34.9644C33.087 35.187 33.3386 35.3128 33.7451 35.3128C34.529 35.3128 35.2161 34.7031 35.2161 33.8225C35.2161 32.9418 34.8677 32.6031 34.2774 32.2257C27.3677 28.0934 19.2677 27.9386 11.3419 29.6902C10.6161 29.845 10.0257 30.3192 10.0257 31.316C10.0257 32.0999 10.6161 32.845 11.5548 32.845C11.7752 32.845 12.1268 32.7496 12.4504 32.6617C12.5389 32.6377 12.6253 32.6142 12.7064 32.5934C19.6451 31.1708 26.6709 31.3257 32.7096 34.9644Z" fill="black"/>
</svg>
