<svg width="374" height="371" viewBox="0 0 374 371" fill="none" xmlns="http://www.w3.org/2000/svg">
<path d="M98.0735 41.1865L55.3887 65.5933C53.3561 66.6102 50.3071 66.6102 47.2582 65.5933L4.57338 41.1865C-1.52446 38.1356 -1.52446 30 4.57338 25.9322L46.2419 1.52543C49.2908 -0.508475 52.3397 -0.508475 54.3724 1.52543L98.0735 25.9322C103.155 28.9831 103.155 37.1187 98.0735 41.1865Z" fill="#3500D4"/>
<g opacity="0.8333">
<g opacity="0.8333">
<path opacity="0.8333" d="M98.0735 70.678L56.405 95.0849C53.3561 97.1188 50.3071 97.1188 48.2745 95.0849L4.57338 70.678C-1.52446 67.6272 -1.52446 59.4916 4.57338 55.4238L46.2419 31.017C49.2908 28.9831 52.3397 28.9831 54.3724 31.017L98.0735 56.4407C103.155 59.4916 103.155 67.6272 98.0735 70.678Z" fill="#3500D4"/>
</g>
</g>
<g opacity="0.6667">
<g opacity="0.6667">
<path opacity="0.6667" d="M98.0736 101.187L56.405 125.593C53.3561 127.627 50.3072 127.627 48.2746 125.593L5.58973 101.187C-0.5081 98.1357 -0.5081 90.0001 5.58973 85.9323L47.2583 61.5255C50.3072 59.4916 53.3561 59.4916 55.3887 61.5255L98.0736 85.9323C103.155 88.9832 103.155 97.1188 98.0736 101.187Z" fill="#3500D4"/>
</g>
</g>
<g opacity="0.5">
<g opacity="0.5">
<path opacity="0.5" d="M98.0736 130.678L56.405 155.085C53.3561 157.119 50.3072 157.119 48.2746 155.085L5.58973 130.678C-0.5081 127.627 -0.5081 119.492 5.58973 115.424L47.2583 91.0171C50.3072 88.9832 53.3561 88.9832 55.3887 91.0171L98.0736 115.424C103.155 119.492 103.155 127.627 98.0736 130.678Z" fill="#3500D4"/>
</g>
</g>
<g opacity="0.3333">
<g opacity="0.3333">
<path opacity="0.3333" d="M98.0736 161.187L56.405 185.593C53.3561 187.627 50.3072 187.627 48.2746 185.593L5.58973 161.187C-0.5081 158.136 -0.5081 150 5.58973 145.932L47.2583 121.526C50.3072 119.492 53.3561 119.492 55.3887 121.526L98.0736 145.932C103.155 150 103.155 158.136 98.0736 161.187Z" fill="#3500D4"/>
</g>
</g>
<g opacity="0.1667">
<g opacity="0.1667">
<path opacity="0.1667" d="M98.0736 190.678L56.405 215.085C53.3561 217.119 50.3072 217.119 48.2746 215.085L5.58973 190.678C-0.5081 187.627 -0.5081 179.492 5.58973 175.424L47.2583 151.017C50.3072 148.983 53.3561 148.983 55.3887 151.017L98.0736 175.424C103.155 179.492 103.155 187.627 98.0736 190.678Z" fill="#3500D4"/>
</g>
</g>
<path d="M98.0735 41.1865L55.3887 65.5933C53.3561 66.6102 50.3071 66.6102 47.2582 65.5933L4.57338 41.1865C-1.52446 38.1356 -1.52446 30 4.57338 25.9322L46.2419 1.52543C49.2908 -0.508475 52.3397 -0.508475 54.3724 1.52543L98.0735 25.9322C103.155 28.9831 103.155 37.1187 98.0735 41.1865Z" fill="#3500D4"/>
<g opacity="0.1">
<path opacity="0.1" d="M98.0735 209.814L56.405 234.221C53.3561 236.255 50.3071 236.255 48.2745 234.221L4.57338 209.814C-1.52446 206.763 -1.52446 198.628 4.57338 194.56L46.2419 170.153C49.2908 168.119 52.3397 168.119 54.3724 170.153L97.0572 194.56C103.155 197.611 103.155 205.746 98.0735 209.814Z" fill="black"/>
</g>
<g opacity="0.1">
<path opacity="0.1" d="M369.427 344.797L327.758 369.204C324.709 371.238 321.66 371.238 319.628 369.204L276.943 344.797C270.845 341.746 270.845 333.611 276.943 329.543L318.611 305.136C321.66 303.102 324.709 303.102 326.742 305.136L369.427 329.543C375.524 332.594 375.524 341.746 369.427 344.797Z" fill="black"/>
</g>
<path d="M369.427 128.187L327.758 152.593C324.709 154.627 321.66 154.627 319.628 152.593L276.943 128.187C270.845 125.136 270.845 117 276.943 112.932L318.611 88.5255C321.66 86.4916 324.709 86.4916 326.742 88.5255L369.427 112.932C375.524 115.983 375.524 124.119 369.427 128.187Z" fill="#F61C7A"/>
<g opacity="0.8333">
<g opacity="0.8333">
<path opacity="0.8333" d="M369.427 163.78L327.758 188.187C324.709 190.221 321.66 190.221 319.628 188.187L276.943 163.78C270.845 160.729 270.845 152.593 276.943 148.526L318.611 124.119C321.66 122.085 324.709 122.085 326.742 124.119L369.427 148.526C375.524 152.593 375.524 160.729 369.427 163.78Z" fill="#F61C7A"/>
</g>
</g>
<g opacity="0.6667">
<g opacity="0.6667">
<path opacity="0.6667" d="M369.427 200.39L327.758 224.797C324.709 226.831 321.66 226.831 319.628 224.797L276.943 200.39C270.845 197.339 270.845 189.204 276.943 185.136L318.611 160.729C321.66 158.695 324.709 158.695 326.742 160.729L369.427 185.136C375.524 188.187 375.524 197.339 369.427 200.39Z" fill="#F61C7A"/>
</g>
</g>
<g opacity="0.5">
<g opacity="0.5">
<path opacity="0.5" d="M369.427 235.983L327.758 260.39C324.709 262.424 321.66 262.424 319.628 260.39L276.943 235.983C270.845 232.933 270.845 224.797 276.943 220.729L318.611 196.322C321.66 194.288 324.709 194.288 326.742 196.322L369.427 220.729C375.524 224.797 375.524 232.933 369.427 235.983Z" fill="#F61C7A"/>
</g>
</g>
<g opacity="0.3333">
<g opacity="0.3333">
<path opacity="0.3333" d="M369.427 272.594L327.758 297C324.709 299.034 321.66 299.034 319.628 297L276.943 272.594C270.845 269.543 270.845 261.407 276.943 257.339L318.611 232.932C321.66 230.899 324.709 230.899 326.742 232.932L369.427 257.339C375.524 260.39 375.524 269.543 369.427 272.594Z" fill="#F61C7A"/>
</g>
</g>
<g opacity="0.1667">
<g opacity="0.1667">
<path opacity="0.1667" d="M369.427 308.187L327.758 332.594C324.709 334.628 321.66 334.628 319.628 332.594L276.943 308.187C270.845 305.136 270.845 297 276.943 292.933L318.611 268.526C321.66 266.492 324.709 266.492 326.742 268.526L369.427 292.933C375.524 297 375.524 305.136 369.427 308.187Z" fill="#F61C7A"/>
</g>
</g>
<path d="M369.427 128.187L327.758 152.593C324.709 154.627 321.66 154.627 319.628 152.593L276.943 128.187C270.845 125.136 270.845 117 276.943 112.932L318.611 88.5255C321.66 86.4916 324.709 86.4916 326.742 88.5255L369.427 112.932C375.524 115.983 375.524 124.119 369.427 128.187Z" fill="#F61C7A"/>
<path d="M236.291 82.424L194.622 106.831C191.574 108.865 188.525 108.865 186.492 106.831L143.807 82.424C137.709 79.3731 137.709 71.2375 143.807 67.1697L185.476 42.7629C188.525 41.7459 191.574 41.7459 193.606 42.7629L236.291 67.1697C242.389 70.2206 242.389 79.3731 236.291 82.424Z" fill="#908FEC"/>
<g opacity="0.8333">
<g opacity="0.8333">
<path opacity="0.8333" d="M236.291 128.187L194.622 152.594C191.574 154.627 188.525 154.627 186.492 152.594L143.807 128.187C137.709 125.136 137.709 117 143.807 112.932L185.476 88.5257C188.525 86.4918 191.574 86.4918 193.606 88.5257L236.291 112.932C242.389 117 242.389 125.136 236.291 128.187Z" fill="#908FEC"/>
</g>
</g>
<g opacity="0.6667">
<g opacity="0.6667">
<path opacity="0.6667" d="M236.291 174.966L194.622 199.373C191.574 201.407 188.525 201.407 186.492 199.373L143.807 174.966C137.709 171.916 137.709 163.78 143.807 159.712L185.476 135.305C188.525 133.271 191.574 133.271 193.606 135.305L236.291 159.712C242.389 162.763 242.389 171.916 236.291 174.966Z" fill="#908FEC"/>
</g>
</g>
<g opacity="0.5">
<g opacity="0.5">
<path opacity="0.5" d="M236.291 220.729L194.622 245.136C191.574 247.17 188.525 247.17 186.492 245.136L143.807 220.729C137.709 217.678 137.709 209.543 143.807 205.475L185.476 181.068C188.525 179.034 191.574 179.034 193.606 181.068L236.291 205.475C242.389 209.543 242.389 217.678 236.291 220.729Z" fill="#908FEC"/>
</g>
</g>
<g opacity="0.3333">
<g opacity="0.3333">
<path opacity="0.3333" d="M236.291 267.509L194.622 291.916C191.574 293.95 188.525 293.95 186.492 291.916L143.807 267.509C137.709 264.458 137.709 256.322 143.807 252.255L185.476 227.848C188.525 225.814 191.574 225.814 193.606 227.848L236.291 252.255C242.389 256.322 242.389 264.458 236.291 267.509Z" fill="#908FEC"/>
</g>
</g>
<g opacity="0.1667">
<g opacity="0.1667">
<path opacity="0.1667" d="M236.291 313.272L194.622 337.678C191.574 339.712 188.525 339.712 186.492 337.678L143.807 313.272C137.709 310.221 137.709 302.085 143.807 298.017L185.476 273.611C188.525 271.577 191.574 271.577 193.606 273.611L236.291 298.017C242.389 302.085 242.389 310.221 236.291 313.272Z" fill="#908FEC"/>
</g>
</g>
<g opacity="0.1">
<path opacity="0.1" d="M236.291 284.051L194.622 308.458C191.574 310.492 188.525 310.492 186.492 308.458L143.807 284.051C137.709 281.001 137.709 272.865 143.807 268.797L185.476 244.39C188.525 242.356 191.574 242.356 193.606 244.39L236.291 268.797C242.389 271.848 242.389 279.984 236.291 284.051Z" fill="#C42020"/>
</g>
<path d="M236.291 82.424L194.622 106.831C191.574 108.865 188.525 108.865 186.492 106.831L143.807 82.424C137.709 79.3731 137.709 71.2375 143.807 67.1697L185.476 42.7629C188.525 41.7459 191.574 41.7459 193.606 42.7629L236.291 67.1697C242.389 70.2206 242.389 79.3731 236.291 82.424Z" fill="#908FEC"/>
</svg>
