<svg width="48" height="48" viewBox="0 0 48 48" fill="none" xmlns="http://www.w3.org/2000/svg">
<circle cx="24" cy="24" r="24" fill="#E82127"/>
<path fill-rule="evenodd" clip-rule="evenodd" d="M39.1034 14.9899C33.7671 12.6541 28.5542 11.9116 24 11.9466H23.9994C19.445 11.9116 14.2313 12.6541 8.89596 14.9899C8.26021 13.8327 8 13.1309 8 13.1309C13.8327 10.8132 19.2953 10.0199 23.9994 10C28.7036 10.0199 34.1666 10.8131 40 13.1309C40 13.1309 39.8166 13.7007 39.1034 14.9899ZM28.4785 16.7146L24.0018 42L19.4889 16.7109C15.2504 16.714 13.9061 17.1839 13.7106 19.1021C13.7106 19.1021 10.847 18.0302 9.40451 15.8532C15.0377 13.2314 20.6986 13.113 20.6986 13.113L23.9983 17.1493L27.2975 13.1137C27.2975 13.1137 32.9583 13.2319 38.5922 15.8537C37.1485 18.0307 34.2859 19.1026 34.2859 19.1026C34.0916 17.1845 32.7457 16.7146 28.4785 16.7146Z" fill="white"/>
</svg>
