<svg width="24" height="24" viewBox="0 0 24 24" fill="none" xmlns="http://www.w3.org/2000/svg">
<path fill-rule="evenodd" clip-rule="evenodd" d="M3 11.8889C3 11.398 3.39797 11 3.88889 11H20.1111C20.602 11 21 11.398 21 11.8889C21 15.8162 17.8162 19 13.8889 19H10.1111C6.18375 19 3 15.8162 3 11.8889Z" fill="#908FEC"/>
<path fill-rule="evenodd" clip-rule="evenodd" d="M6.55556 5C4.59188 5 3 6.59188 3 8.55556C3 8.80102 3.19898 9 3.44444 9H20.5556C20.801 9 21 8.80102 21 8.55556C21 6.59188 19.4081 5 17.4444 5H6.55556ZM8 13C7.44772 13 7 13.4477 7 14C7 14.5523 7.44772 15 8 15H13C13.5523 15 14 14.5523 14 14C14 13.4477 13.5523 13 13 13H8Z" fill="#F61C7A"/>
</svg>
