<svg width="24" height="24" viewBox="0 0 24 24" fill="none" xmlns="http://www.w3.org/2000/svg">
<path fill-rule="evenodd" clip-rule="evenodd" d="M19.1026 17.9068C17.9674 18.2678 16.8007 18.5386 15.6235 18.7292C15.5079 18.7493 15.3922 18.7693 15.2766 18.7794C15.0874 18.8094 14.8982 18.8295 14.709 18.8496C14.4778 18.8796 14.236 18.8997 13.9943 18.9198C13.3321 18.9699 12.6804 19 12.0182 19C11.3455 19 10.6728 18.9699 10.0106 18.9097C9.7268 18.8897 9.45352 18.8596 9.18023 18.8195C9.02256 18.7994 8.8649 18.7794 8.71775 18.7593C8.60212 18.7392 8.4865 18.7292 8.37088 18.7091C7.20416 18.5286 6.04795 18.2578 4.92327 17.8968C4.08239 17.626 3.44122 17.0543 3.15743 16.3221C2.87363 15.6 2.97874 14.7575 3.43071 14.0354L4.61846 12.1499C4.87072 11.7386 5.10196 10.9463 5.10196 10.4649V8.59941C5.10196 4.9587 8.20271 2 12.0182 2C15.8232 2 18.9239 4.9587 18.9239 8.59941V10.4649C18.9239 10.9463 19.1552 11.7386 19.4179 12.1499L20.6057 14.0354C21.0366 14.7375 21.1207 15.5599 20.8264 16.3221C20.5321 17.0743 19.912 17.646 19.1026 17.9068Z" fill="white"/>
<path fill-rule="evenodd" clip-rule="evenodd" d="M12 8C12.5523 8 13 7.55228 13 7C13 6.44772 12.5523 6 12 6C11.4477 6 11 6.44772 11 7C11 7.55228 11.4477 8 12 8ZM9.74336 21.11C10.3274 21.68 11.1558 22 11.9947 22C13.3752 22 14.554 21.17 15 20.01C14.8195 20.03 14.6496 20.05 14.4796 20.07C14.3362 20.0903 14.188 20.1014 14.0381 20.1127C13.9661 20.1181 13.8937 20.1235 13.8212 20.13C13.2265 20.18 12.6212 20.21 12.0159 20.21C11.4 20.21 10.7841 20.18 10.1788 20.13C9.92389 20.11 9.66903 20.08 9.42478 20.05C9.3549 20.0406 9.28736 20.0334 9.22107 20.0263C9.14632 20.0184 9.07316 20.0106 9 20C9.14867 20.41 9.40354 20.81 9.74336 21.11Z" fill="#03314B"/>
</svg>
