<svg width="154" height="137" viewBox="0 0 154 137" fill="none" xmlns="http://www.w3.org/2000/svg">
<path d="M154 37.2726V118.23C154 121.537 153.098 124.643 151.495 127.348C148.389 132.558 142.678 136.065 136.165 136.065H25.149C6.81328 136.065 -0.701358 112.419 14.4281 101.898L46.3904 79.6551L68.0325 64.6259L102.7 40.4788L127.248 23.2453C138.57 15.4301 154 23.4457 154 37.2726Z" fill="#3500D4"/>
<path opacity="0.24" d="M154 37.2726V118.23C154 121.537 153.098 124.643 151.495 127.348C148.389 132.558 142.678 136.065 136.165 136.065H74.445C57.6123 122.939 46.691 102.6 46.3904 79.6551L68.0325 64.6259L102.7 40.4788L127.248 23.2453C138.57 15.4301 154 23.4457 154 37.2726Z" fill="#E9E9FB"/>
<path opacity="0.24" d="M154 37.2726V112.118C124.242 103.101 102.6 75.4469 102.6 42.7833C102.6 41.9818 102.6 41.2804 102.6 40.4788L127.248 23.2453C138.57 15.4301 154 23.4457 154 37.2726Z" fill="#F61C7A"/>
<path d="M62.622 100.997H43.9857C42.3825 100.997 41.08 102.299 41.08 103.902V136.967H65.6278V103.902C65.6278 102.299 64.2251 100.997 62.622 100.997Z" fill="white"/>
<path d="M97.089 89.875H78.4527C76.8496 89.875 75.547 91.1776 75.547 92.7807V136.967H100.095V92.8809C99.9946 91.1776 98.6921 89.875 97.089 89.875Z" fill="white"/>
<path d="M131.456 77.8516H112.82C111.217 77.8516 109.914 79.1542 109.914 80.7573V136.967H134.462V80.8575C134.362 79.1542 133.059 77.8516 131.456 77.8516Z" fill="white"/>
<path d="M118.831 1.60312L95.5862 0L101.698 8.51659C92.6805 16.3318 0 90.376 0 90.376L107.209 16.3318L113.221 24.7482L118.831 1.60312Z" fill="#3500D4"/>
</svg>
