<svg width="24" height="24" viewBox="0 0 24 24" fill="none" xmlns="http://www.w3.org/2000/svg">
<path fill-rule="evenodd" clip-rule="evenodd" d="M9.2318 10.3598C9.58136 9.94034 10.1953 9.88367 10.6141 10.2106L10.7071 10.2929L12.943 12.528L16.825 8H15C14.4872 8 14.0645 7.61396 14.0068 7.11662L14 7C14 6.48716 14.3861 6.06449 14.8834 6.00673L15 6H19L19.0344 6.00055C19.0601 6.00142 19.0859 6.00328 19.1115 6.00614L19 6C19.0538 6 19.1066 6.00424 19.158 6.01241C19.1778 6.01555 19.1978 6.01935 19.2176 6.02376L19.2293 6.02641L19.277 6.03886C19.297 6.04463 19.3169 6.05103 19.3367 6.05808C19.4489 6.09815 19.5522 6.15796 19.642 6.23327C19.645 6.23579 19.6479 6.23826 19.6508 6.24074L19.6653 6.2534C19.6893 6.27478 19.7122 6.29728 19.734 6.32084L19.6508 6.24074C19.6868 6.27156 19.72 6.30437 19.7505 6.33888C19.7706 6.36182 19.7899 6.38588 19.8081 6.41081C19.8141 6.41871 19.8198 6.42675 19.8253 6.43485C19.841 6.45794 19.8558 6.48155 19.8696 6.50579C19.8764 6.51755 19.8829 6.52964 19.8892 6.54183C19.8993 6.56145 19.9087 6.58141 19.9176 6.60173C19.9243 6.61731 19.9305 6.63281 19.9364 6.64844C19.9459 6.67346 19.9543 6.69907 19.9618 6.72511C19.9643 6.73469 19.9669 6.74409 19.9693 6.75353C19.9801 6.7957 19.9882 6.8391 19.9933 6.88338L20 7V11C20 11.5523 19.5523 12 19 12C18.4872 12 18.0645 11.614 18.0068 11.1166L18 11L18 9.702L13.7593 14.6508C13.4073 15.0615 12.7998 15.1132 12.385 14.7887L12.2929 14.7071L10.067 12.482L5.76825 17.6402C5.44188 18.0318 4.87949 18.1108 4.46119 17.8425L4.35984 17.7682C3.9682 17.4419 3.88923 16.8795 4.15749 16.4612L4.2318 16.3598L9.2318 10.3598Z" fill="white"/>
</svg>
