<svg width="80" height="80" viewBox="0 0 80 80" fill="none" xmlns="http://www.w3.org/2000/svg">
<path fill-rule="evenodd" clip-rule="evenodd" d="M80 25C80 11.1929 68.8071 0 55 0C52.2386 0 50 2.23858 50 5C50 7.76142 52.2386 10 55 10C63.2843 10 70 16.7157 70 25L70.0336 25.5831C70.3225 28.0698 72.4358 30 75 30C77.7614 30 80 27.7614 80 25ZM5 50C7.76142 50 10 52.2386 10 55C10 62.9884 16.2446 69.5183 24.1186 69.9745L25 70C27.7614 70 30 72.2386 30 75C30 77.7614 27.7614 80 25 80C11.1929 80 0 68.8071 0 55C0 52.2386 2.23858 50 5 50ZM75 50C77.7614 50 80 52.2386 80 55C80 68.8071 68.8071 80 55 80C52.2386 80 50 77.7614 50 75C50 72.4358 51.9302 70.3225 54.4169 70.0336L55 70C62.9884 70 69.5183 63.7554 69.9745 55.8814L70 55C70 52.2386 72.2386 50 75 50ZM25 0C27.7614 0 30 2.23858 30 5C30 7.76142 27.7614 10 25 10C16.7157 10 10 16.7157 10 25C10 27.7614 7.76142 30 5 30C2.23858 30 0 27.7614 0 25C0 11.1929 11.1929 0 25 0ZM59.1603 42.2265C57.6285 39.9289 54.5241 39.308 52.2265 40.8397C44.8227 45.7756 35.1773 45.7756 27.7735 40.8397C25.4759 39.308 22.3715 39.9289 20.8398 42.2265C19.308 44.5241 19.9289 47.6285 22.2265 49.1602C32.9893 56.3354 47.0107 56.3354 57.7735 49.1602C60.0711 47.6285 60.692 44.5241 59.1603 42.2265Z" fill="#A5A6F6"/>
</svg>
