<svg width="86" height="104" viewBox="0 0 86 104" fill="none" xmlns="http://www.w3.org/2000/svg">
<path d="M3.65653 8.74402C1.43419 9.57549 0 11.5113 0 13.6419V60.9971C0 70.6889 4.57389 79.7572 12.2358 85.2787L39.8988 103.103C41.7335 104.286 44.2401 104.286 46.0878 103.103L73.7508 85.2787C81.4127 79.7572 85.9866 70.676 85.9866 60.9971V13.7718C85.9866 11.5762 84.4619 9.60147 82.1362 8.79598C48.5427 -2.76672 35.0794 -3.07853 3.65653 8.74402Z" fill="#3500D4"/>
<path d="M82.1492 8.79601C65.7917 3.17056 54.2019 0.208427 42.9997 0.0135497V104C44.0851 104 45.1704 103.701 46.0878 103.117L73.7508 85.2918C81.4127 79.7703 85.9866 70.689 85.9866 61.0101V13.7719C85.9995 11.5763 84.4749 9.6015 82.1492 8.79601Z" fill="#F61C7A"/>
<path d="M45.8165 50.9544H39.5242C33.8779 50.9544 29.2911 46.3423 29.2911 40.6649V39.4307C29.2911 33.7533 33.8779 29.1412 39.5242 29.1412H45.8165C51.4628 29.1412 56.0496 33.7533 56.0496 39.4307V40.6649C56.0496 46.3423 51.4628 50.9544 45.8165 50.9544ZM39.5242 33.2596C36.139 33.2596 33.3869 36.0268 33.3869 39.4307V40.6649C33.3869 44.0688 36.139 46.836 39.5242 46.836H45.8165C49.2017 46.836 51.9538 44.0688 51.9538 40.6649V39.4307C51.9538 36.0268 49.2017 33.2596 45.8165 33.2596H39.5242Z" fill="white"/>
<path d="M48.4781 79.7053H38.5422C29.2394 79.7053 21.7067 72.1311 21.7067 62.777V46.2644C21.7067 44.1727 23.3863 42.4838 25.4666 42.4838H59.4736C62.1352 42.4838 64.293 44.6534 64.293 47.3297V63.8033C64.293 72.5858 57.2125 79.7053 48.4781 79.7053Z" fill="white"/>
<path d="M44.8368 58.9133C47.7321 57.8921 49.2559 54.7041 48.2403 51.7928C47.2246 48.8815 44.0542 47.3493 41.1588 48.3706C38.2634 49.3918 36.7396 52.5798 37.7553 55.4911C38.7709 58.4024 41.9414 59.9346 44.8368 58.9133Z" fill="#F178B6"/>
<path d="M43 56.2552C43.6589 56.2552 44.2016 56.8008 44.2016 57.4634V66.7655C44.2016 67.4281 43.6589 67.9738 43 67.9738C42.341 67.9738 41.7983 67.4281 41.7983 66.7655V57.4634C41.7983 56.8008 42.341 56.2552 43 56.2552Z" fill="#F178B6"/>
</svg>
