<svg width="32" height="32" viewBox="0 0 32 32" fill="none" xmlns="http://www.w3.org/2000/svg">
<path d="M16 0C7.16774 0 0 7.16774 0 16C0 24.8323 7.16774 32 16 32C24.8323 32 32 24.8323 32 16C32 7.16774 24.8323 0 16 0Z" fill="#1ED760"/>
<path fill-rule="evenodd" clip-rule="evenodd" d="M26.2322 14.3933C25.8967 14.3933 25.6903 14.3094 25.4 14.1417C20.8064 11.3998 12.5935 10.7417 7.27738 12.2256C7.23882 12.2363 7.19865 12.2481 7.15707 12.2602C6.94818 12.3215 6.70338 12.3933 6.44512 12.3933C5.59351 12.3933 4.94189 11.7288 4.94189 10.8707C4.94189 9.99331 5.48383 9.49653 6.06448 9.32879C8.33544 8.66427 10.8774 8.34814 13.6451 8.34814C18.3548 8.34814 23.2903 9.32879 26.8967 11.432C27.4 11.7223 27.729 12.1223 27.729 12.8901C27.729 13.7675 27.0193 14.3933 26.2322 14.3933ZM24.2322 19.3094C23.9382 19.3094 23.7284 19.1954 23.5247 19.0847C23.496 19.0691 23.4674 19.0536 23.4387 19.0385C19.4064 16.6514 13.3935 15.6901 8.04512 17.1417C7.96322 17.1639 7.89124 17.1861 7.8243 17.2067C7.63814 17.2641 7.49092 17.3094 7.27738 17.3094C6.58706 17.3094 6.02577 16.7481 6.02577 16.0578C6.02577 15.3675 6.36125 14.9094 7.02577 14.7223C8.81931 14.2191 10.6516 13.8449 13.3354 13.8449C17.5225 13.8449 21.5677 14.8836 24.7548 16.7804C25.2774 17.0901 25.4838 17.4901 25.4838 18.0514C25.4774 18.7481 24.9354 19.3094 24.2322 19.3094ZM21.8064 23.3094C22.058 23.4578 22.2258 23.5417 22.4967 23.5417C23.0193 23.5417 23.4774 23.1352 23.4774 22.5481C23.4774 21.961 23.2451 21.7352 22.8516 21.4836C18.2451 18.7288 12.8451 18.6256 7.56125 19.7933C7.07738 19.8965 6.68383 20.2127 6.68383 20.8772C6.68383 21.3998 7.07738 21.8965 7.70318 21.8965C7.85011 21.8965 8.08455 21.8329 8.3003 21.7743C8.3593 21.7583 8.4169 21.7426 8.47093 21.7288C13.0967 20.7804 17.7806 20.8836 21.8064 23.3094Z" fill="black"/>
</svg>
