<svg width="32" height="32" viewBox="0 0 32 32" fill="none" xmlns="http://www.w3.org/2000/svg">
<path fill-rule="evenodd" clip-rule="evenodd" d="M16 6.66699C21.0472 6.66699 25.1588 10.6734 25.3279 15.6795L25.3333 16.0003V17.3337C25.3333 18.07 24.7363 18.667 24 18.667C23.3162 18.667 22.7526 18.1523 22.6756 17.4892L22.6666 17.3337V16.0003C22.6666 12.3184 19.6819 9.33366 16 9.33366C12.415 9.33366 9.49087 12.1634 9.33945 15.7111L9.33329 16.0003V17.3337C9.33329 18.07 8.73634 18.667 7.99996 18.667C7.31618 18.667 6.75262 18.1523 6.6756 17.4892L6.66663 17.3337V16.0003C6.66663 10.8457 10.8453 6.66699 16 6.66699Z" fill="#3500D4"/>
<path fill-rule="evenodd" clip-rule="evenodd" d="M4 20.0003C4 17.0548 6.38781 14.667 9.33333 14.667H11.8431C11.9298 14.667 12 14.7372 12 14.8239V25.1768C12 25.2634 11.9298 25.3337 11.8431 25.3337H9.33333C6.38781 25.3337 4 22.9458 4 20.0003ZM20 14.8239C20 14.7372 20.0702 14.667 20.1569 14.667H22.6667C25.6122 14.667 28 17.0548 28 20.0003C28 22.9458 25.6122 25.3337 22.6667 25.3337H20.1569C20.0702 25.3337 20 25.2634 20 25.1768V24.0003H17C16.4477 24.0003 16 23.5526 16 23.0003V22.3337C16 21.7814 16.4477 21.3337 17 21.3337H20V14.8239Z" fill="#F61C7A"/>
</svg>
