<svg width="24" height="24" viewBox="0 0 24 24" fill="none" xmlns="http://www.w3.org/2000/svg">
<path fill-rule="evenodd" clip-rule="evenodd" d="M13.7701 2.42945C12.7801 1.85945 11.2301 1.85945 10.2401 2.42945L5.19 5.43945C3.12 6.83945 3 7.04945 3 9.27945V14.7095C3 16.9395 3.12 17.1595 5.23 18.5795L10.2301 21.5695C10.7301 21.8595 11.3701 21.9995 12.0001 21.9995C12.6301 21.9995 13.2701 21.8595 13.7601 21.5695L18.81 18.5595C20.88 17.1595 21 16.9495 21 14.7195V9.27945C21 7.04945 20.88 6.83945 18.77 5.41945C18.77 5.41945 17.6187 4.75361 17.043 4.42069C15.8954 3.75695 13.7701 2.42945 13.7701 2.42945Z" fill="#E8F9DC"/>
<path fill-rule="evenodd" clip-rule="evenodd" d="M12 15C10.3431 15 9 13.6569 9 12C9 10.3431 10.3431 9 12 9C13.6569 9 15 10.3431 15 12C15 13.6569 13.6569 15 12 15Z" fill="#03314B"/>
</svg>
