<svg width="291" height="291" viewBox="0 0 291 291" fill="none" xmlns="http://www.w3.org/2000/svg">
<path d="M0 58.1713C0 59.2758 0.89543 60.1713 2 60.1713C3.10457 60.1713 4 59.2758 4 58.1713H0ZM232.829 0C231.724 0 230.829 0.89543 230.829 2C230.829 3.10457 231.724 4 232.829 4V0ZM291 230.417C291 229.313 290.105 228.417 289 228.417C287.895 228.417 287 229.313 287 230.417H291ZM58.1713 291C59.2758 291 60.1713 290.105 60.1713 289C60.1713 287.895 59.2758 287 58.1713 287V291ZM4 58.1713V37.107H0V58.1713H4ZM4 37.107C4 18.8225 18.8225 4 37.107 4V0C16.6134 0 0 16.6134 0 37.107H4ZM37.107 4H58.1713V0H37.107V4ZM232.829 4H253.893V0H232.829V4ZM253.893 4C272.177 4 287 18.8225 287 37.107H291C291 16.6134 274.387 0 253.893 0V4ZM287 37.107V58.1713H291V37.107H287ZM287 230.417V253.893H291V230.417H287ZM287 253.893C287 272.177 272.177 287 253.893 287V291C274.387 291 291 274.387 291 253.893H287ZM253.893 287H232.829V291H253.893V287ZM58.1713 287H37.107V291H58.1713V287ZM37.107 287C18.8225 287 4 272.177 4 253.893H0C0 274.387 16.6134 291 37.107 291V287ZM4 253.893V230.417H0V253.893H4Z" fill="#3500D4"/>
</svg>
