<svg width="16" height="16" viewBox="0 0 16 16" fill="none" xmlns="http://www.w3.org/2000/svg">
<path fill-rule="evenodd" clip-rule="evenodd" d="M8.00016 3.33301C10.5238 3.33301 12.5796 5.3362 12.6641 7.83924L12.6668 7.99967V8.66634C12.6668 9.03453 12.3684 9.33301 12.0002 9.33301C11.6583 9.33301 11.3765 9.07565 11.338 8.74409L11.3335 8.66634V7.99967C11.3335 6.15873 9.84111 4.66634 8.00016 4.66634C6.20766 4.66634 4.74562 6.08121 4.66991 7.85508L4.66683 7.99967V8.66634C4.66683 9.03453 4.36835 9.33301 4.00016 9.33301C3.65827 9.33301 3.37649 9.07565 3.33798 8.74409L3.3335 8.66634V7.99967C3.3335 5.42235 5.42283 3.33301 8.00016 3.33301Z" fill="#3500D4"/>
<path fill-rule="evenodd" clip-rule="evenodd" d="M2 9.99967C2 8.52692 3.19391 7.33301 4.66667 7.33301H5.92157C5.96489 7.33301 6 7.36812 6 7.41144V12.5879C6 12.6312 5.96489 12.6663 5.92157 12.6663H4.66667C3.19391 12.6663 2 11.4724 2 9.99967ZM10 7.41144C10 7.36812 10.0351 7.33301 10.0784 7.33301H11.3333C12.8061 7.33301 14 8.52692 14 9.99967C14 11.4724 12.8061 12.6663 11.3333 12.6663H10.0784C10.0351 12.6663 10 12.6312 10 12.5879V11.9997H8.66667C8.29848 11.9997 8 11.7012 8 11.333C8 10.9648 8.29848 10.6663 8.66667 10.6663H10V7.41144Z" fill="#F61C7A"/>
</svg>
