<svg width="24" height="24" viewBox="0 0 24 24" fill="none" xmlns="http://www.w3.org/2000/svg">
<path fill-rule="evenodd" clip-rule="evenodd" d="M16 21.9998C19.3137 21.9998 22 19.3135 22 15.9998V7.99975C22 4.68604 19.3137 1.99975 16 1.99975L14.0665 1.99951C12.4985 1.99932 11.5757 3.7468 11.9119 5.27832C11.9675 5.5315 12 5.77549 12 5.99975C12 9.31346 9.3137 11.9998 6 11.9998C5.77574 11.9998 5.53175 11.9672 5.27857 11.9116C3.74704 11.5754 1.99956 12.4983 1.99976 14.0663L2 15.9998C2 19.3135 4.68629 21.9998 8 21.9998H16ZM6 9.99975C8.20914 9.99975 10 8.20889 10 5.99975C10 3.79061 8.20914 1.99975 6 1.99975C3.79086 1.99975 2 3.79061 2 5.99975C2 8.20889 3.79086 9.99975 6 9.99975Z" fill="#F61C7A"/>
<path fill-rule="evenodd" clip-rule="evenodd" d="M6 2C8.20914 2 10 3.79086 10 6H7C6.44772 6 6 5.55228 6 5V2ZM17 10C17 9.44772 17.4477 9 18 9C18.5523 9 19 9.44772 19 10V18C19 18.5523 18.5523 19 18 19C17.4477 19 17 18.5523 17 18V10ZM9 14C9 13.4477 9.44772 13 10 13C10.5523 13 11 13.4477 11 14V18C11 18.5523 10.5523 19 10 19C9.44772 19 9 18.5523 9 18V14ZM5 18C5 17.4477 5.44772 17 6 17C6.55228 17 7 17.4477 7 18C7 18.5523 6.55228 19 6 19C5.44772 19 5 18.5523 5 18ZM14 15C13.4477 15 13 15.4477 13 16V18C13 18.5523 13.4477 19 14 19C14.5523 19 15 18.5523 15 18V16C15 15.4477 14.5523 15 14 15Z" fill="#FCDDEC"/>
</svg>
