<svg width="259" height="141" viewBox="0 0 259 141" fill="none" xmlns="http://www.w3.org/2000/svg">
<path fill-rule="evenodd" clip-rule="evenodd" d="M4 117C3.44772 117 3 117.448 3 118V121.126C1.27477 121.57 0 123.136 0 125V133C0 134.864 1.27477 136.43 3 136.874V140C3 140.552 3.44772 141 4 141C4.55228 141 5 140.552 5 140V136.874C6.72523 136.43 8 134.864 8 133V125C8 123.136 6.72523 121.57 5 121.126V118C5 117.448 4.55228 117 4 117Z" fill="#3500D4"/>
<path fill-rule="evenodd" clip-rule="evenodd" d="M22 99C21.4477 99 21 99.4477 21 100V109.126C19.2748 109.57 18 111.136 18 113V117C18 118.864 19.2748 120.43 21 120.874V130C21 130.552 21.4477 131 22 131C22.5523 131 23 130.552 23 130V120.874C24.7252 120.43 26 118.864 26 117V113C26 111.136 24.7252 109.57 23 109.126V100C23 99.4477 22.5523 99 22 99Z" fill="#F61C7A"/>
<path fill-rule="evenodd" clip-rule="evenodd" d="M42 99C41.4477 99 41 99.4477 41 100V101.126C39.2748 101.57 38 103.136 38 105V107C38 108.864 39.2748 110.43 41 110.874V112C41 112.552 41.4477 113 42 113C42.5523 113 43 112.552 43 112V110.874C44.7252 110.43 46 108.864 46 107V105C46 103.136 44.7252 101.57 43 101.126V100C43 99.4477 42.5523 99 42 99Z" fill="#3500D4"/>
<path fill-rule="evenodd" clip-rule="evenodd" d="M62 95C61.4477 95 61 95.4477 61 96V111.126C59.2748 111.57 58 113.136 58 115V117C58 118.864 59.2748 120.43 61 120.874V122C61 122.552 61.4477 123 62 123C62.5523 123 63 122.552 63 122V120.874C64.7252 120.43 66 118.864 66 117V115C66 113.136 64.7252 111.57 63 111.126V96C63 95.4477 62.5523 95 62 95Z" fill="#F61C7A"/>
<path fill-rule="evenodd" clip-rule="evenodd" d="M79 107C78.4477 107 78 107.448 78 108V111.126C76.2748 111.57 75 113.136 75 115V131C75 132.864 76.2748 134.43 78 134.874V138C78 138.552 78.4477 139 79 139C79.5523 139 80 138.552 80 138V134.874C81.7252 134.43 83 132.864 83 131V115C83 113.136 81.7252 111.57 80 111.126V108C80 107.448 79.5523 107 79 107Z" fill="#F61C7A"/>
<path fill-rule="evenodd" clip-rule="evenodd" d="M99 83C98.4477 83 98 83.4477 98 84V87.126C96.2748 87.5701 95 89.1362 95 91V123C95 124.864 96.2748 126.43 98 126.874V130C98 130.552 98.4477 131 99 131C99.5523 131 100 130.552 100 130V126.874C101.725 126.43 103 124.864 103 123V91C103 89.1362 101.725 87.5701 100 87.126V84C100 83.4477 99.5523 83 99 83Z" fill="#F61C7A"/>
<path fill-rule="evenodd" clip-rule="evenodd" d="M117 36C116.448 36 116 36.4477 116 37V40.126C114.275 40.5701 113 42.1362 113 44V92C113 94.2091 114.791 96 117 96C119.209 96 121 94.2091 121 92V44C121 42.1362 119.725 40.5701 118 40.126V37C118 36.4477 117.552 36 117 36Z" fill="#F61C7A"/>
<path fill-rule="evenodd" clip-rule="evenodd" d="M135 48C134.448 48 134 48.4477 134 49V50.126C132.275 50.5701 131 52.1362 131 54V60C131 61.8638 132.275 63.4299 134 63.874V65C134 65.5523 134.448 66 135 66C135.552 66 136 65.5523 136 65V63.874C137.725 63.4299 139 61.8638 139 60V54C139 52.1362 137.725 50.5701 136 50.126V49C136 48.4477 135.552 48 135 48Z" fill="#F61C7A"/>
<path fill-rule="evenodd" clip-rule="evenodd" d="M153 24C152.448 24 152 24.4477 152 25V28.126C150.275 28.5701 149 30.1362 149 32V64C149 65.8638 150.275 67.4299 152 67.874V71C152 71.5523 152.448 72 153 72C153.552 72 154 71.5523 154 71V67.874C155.725 67.4299 157 65.8638 157 64V32C157 30.1362 155.725 28.5701 154 28.126V25C154 24.4477 153.552 24 153 24Z" fill="#F61C7A"/>
<path fill-rule="evenodd" clip-rule="evenodd" d="M175 15C174.448 15 174 15.4477 174 16V19.126C172.275 19.5701 171 21.1362 171 23V31C171 32.8638 172.275 34.4299 174 34.874V38C174 38.5523 174.448 39 175 39C175.552 39 176 38.5523 176 38V34.874C177.725 34.4299 179 32.8638 179 31V23C179 21.1362 177.725 19.5701 176 19.126V16C176 15.4477 175.552 15 175 15Z" fill="#3500D4"/>
<path fill-rule="evenodd" clip-rule="evenodd" d="M197 0C196.448 0 196 0.447714 196 0.999999V15.126C194.275 15.5701 193 17.1362 193 19V29C193 30.8638 194.275 32.4299 196 32.874V47C196 47.5523 196.448 48 197 48C197.552 48 198 47.5523 198 47V32.874C199.725 32.4299 201 30.8638 201 29V19C201 17.1362 199.725 15.5701 198 15.126V1C198 0.447715 197.552 0 197 0Z" fill="#3500D4"/>
<path fill-rule="evenodd" clip-rule="evenodd" d="M215 48C214.448 48 214 48.4477 214 49V50.126C212.275 50.5701 211 52.1362 211 54V66C211 67.8638 212.275 69.4299 214 69.874V79C214 79.5523 214.448 80 215 80C215.552 80 216 79.5523 216 79V69.874C217.725 69.4299 219 67.8638 219 66V54C219 52.1362 217.725 50.5701 216 50.126V49C216 48.4477 215.552 48 215 48Z" fill="#F61C7A"/>
<path fill-rule="evenodd" clip-rule="evenodd" d="M235 54C232.791 54 231 55.7909 231 58V66C231 67.8638 232.275 69.4299 234 69.874V73C234 73.5523 234.448 74 235 74C235.552 74 236 73.5523 236 73V69.874C237.725 69.4299 239 67.8638 239 66V58C239 55.7909 237.209 54 235 54Z" fill="#F61C7A"/>
<path fill-rule="evenodd" clip-rule="evenodd" d="M255 1C254.448 1 254 1.44771 254 2V5.12602C252.275 5.57006 251 7.13616 251 9V41C251 42.8638 252.275 44.4299 254 44.874V48C254 48.5523 254.448 49 255 49C255.552 49 256 48.5523 256 48V44.874C257.725 44.4299 259 42.8638 259 41V9C259 7.13616 257.725 5.57006 256 5.12602V2C256 1.44772 255.552 1 255 1Z" fill="#F61C7A"/>
</svg>
