<svg width="24" height="24" viewBox="0 0 24 24" fill="none" xmlns="http://www.w3.org/2000/svg">
<path fill-rule="evenodd" clip-rule="evenodd" d="M10.9933 4.88338C10.9355 4.38604 10.5128 4 10 4C9.44772 4 9 4.44772 9 5V6H5L4.88338 6.00673C4.38604 6.06449 4 6.48716 4 7C4 7.55228 4.44772 8 5 8L8.95737 8.00055C8.82304 9.56924 8.37616 11.0251 7.68753 12.1269L7.60189 12.2551C7.20016 11.8442 6.99934 11.4114 7 11.0016L6.99346 10.885C6.93649 10.3875 6.51444 10.0008 6.0016 10C5.44932 9.99911 5.00089 10.4461 5 10.9984C4.99843 11.9773 5.42471 12.8927 6.18688 13.6652C5.79815 13.8869 5.39693 14 5 14L4.88338 14.0067C4.38604 14.0645 4 14.4872 4 15C4 15.5523 4.44772 16 5 16C6.04732 16 7.04444 15.6068 7.91341 14.8934C8.892 15.3876 10.0506 15.7278 11.2872 15.8917L10.0862 18.5939L10.045 18.7032C9.89577 19.1811 10.1252 19.7055 10.5939 19.9138L10.7032 19.955C11.1811 20.1042 11.7055 19.8748 11.9138 19.4061L12.538 18H17.461L18.0862 19.4061L18.1397 19.51C18.3945 19.941 18.9375 20.1221 19.4061 19.9138C19.9108 19.6895 20.1381 19.0985 19.9138 18.5939L15.9138 9.59386L15.8554 9.48103L15.7825 9.37481C15.339 8.81041 14.4019 8.88343 14.0862 9.59386L12.1409 13.9707C11.1004 13.8905 10.1201 13.6663 9.29226 13.3259L9.38351 13.1869C10.2735 11.7629 10.8223 9.9372 10.9636 8.00132L12 8L12.1166 7.99327C12.614 7.93551 13 7.51284 13 7C13 6.44772 12.5523 6 12 6H11V5L10.9933 4.88338ZM15 12.461L13.427 16H16.573L15 12.461Z" fill="#03314B"/>
</svg>
