<svg width="48" height="48" viewBox="0 0 48 48" fill="none" xmlns="http://www.w3.org/2000/svg">
<path d="M5.29476 32.1C3.86456 32.0432 2.69444 31.6518 1.7795 30.925C1.60489 30.7861 1.18881 30.3698 1.04922 30.1942C0.678198 29.7277 0.425951 29.2736 0.257704 28.7699C-0.260006 27.2192 0.00643945 25.1843 1.01983 22.9511C1.8875 21.0392 3.22636 19.1429 5.56219 16.5166C5.90627 16.1302 6.93092 15 6.93753 15C6.94 15 6.88415 15.0967 6.81386 15.2145C6.20652 16.2318 5.68684 17.4301 5.40374 18.4675C4.94897 20.1321 5.00382 21.5606 5.56439 22.6682C5.95108 23.4313 6.61403 24.0923 7.35949 24.4577C8.66455 25.0971 10.5752 25.15 12.9086 24.6125C13.0693 24.5753 21.0299 22.462 30.599 19.9163C40.1682 17.3704 47.9988 15.289 48 15.2907C48.0027 15.2929 25.7682 24.8072 14.2259 29.7431C12.398 30.5245 11.9092 30.7219 11.0499 31.0236C8.85313 31.7951 6.88537 32.1632 5.29476 32.1Z" fill="black"/>
</svg>
