<svg width="24" height="24" viewBox="0 0 24 24" fill="none" xmlns="http://www.w3.org/2000/svg">
<rect x="2" y="2" width="20" height="20" rx="6" fill="#E8F9DC"/>
<path fill-rule="evenodd" clip-rule="evenodd" d="M15.6257 6.11941C14.7844 5.39831 13.6625 5 12.5 5H11.5L11.2326 5.00704C10.1666 5.06319 9.15091 5.45378 8.37433 6.11943C7.50137 6.86768 7 7.90518 7 9C7 9.55228 7.44772 10 8 10C8.55228 10 9 9.55228 9 9L9.0087 8.83494C9.05499 8.39632 9.28499 7.97302 9.67592 7.63794C10.1474 7.23381 10.8059 7 11.5 7H12.5L12.707 7.00695C13.3239 7.04847 13.8998 7.27422 14.3241 7.63795C14.7639 8.01488 15 8.50349 15 9C15.0261 9.48949 14.9094 9.9186 14.6689 10.2793C14.4897 10.5482 14.3227 10.6401 14.0695 10.7796C13.983 10.8273 13.8863 10.8806 13.7757 10.9483C13.7757 10.9483 13.0556 11.3922 12.7878 11.6583C12.7731 11.673 12.7578 11.6882 12.7418 11.7039C12.4677 11.9754 12.0184 12.4201 11.6046 13.1074C11.5487 13.2002 11.4966 13.284 11.4482 13.3618C11.1174 13.8934 10.9626 14.1421 11.0009 15.0425C11.0244 15.5943 11.4907 16.0226 12.0425 15.9991C12.5943 15.9756 12.9254 15.5039 12.9991 14.9575C13.1647 13.7297 13.9838 13.1607 14.2764 12.9846L14.41 12.912L14.5518 12.8586C15.2755 12.5552 15.8957 12.0446 16.333 11.3887C16.814 10.6672 17.0475 9.80908 16.9984 8.94341L16.9921 8.73585C16.9315 7.76811 16.4405 6.81777 15.6257 6.11941ZM12 19C12.5523 19 13 18.5523 13 18C13 17.4477 12.5523 17 12 17C11.4477 17 11 17.4477 11 18C11 18.5523 11.4477 19 12 19Z" fill="#03314B"/>
</svg>
