<svg width="229" height="215" viewBox="0 0 229 215" fill="none" xmlns="http://www.w3.org/2000/svg">
<g clip-path="url(#clip0_2_4737)">
<path d="M178.266 28.2431C178.266 28.2431 183.447 24.1832 184.986 25.8601C186.524 27.537 186.524 31.597 185.835 31.8794C185.127 32.1618 181.361 33.6975 181.078 33.8387C180.795 33.9623 178.266 28.2431 178.266 28.2431Z" fill="#F7C4A3"/>
<path d="M182.139 35.1803L185.835 33.9799L184.19 23.124L178.921 24.7833L182.139 35.1803Z" fill="url(#paint0_linear_2_4737)"/>
<path d="M168.169 23.3002C169.584 27.3954 173.863 27.1307 175.808 26.4422L178.655 25.4184C177.842 24.4829 176.852 22.5941 176.02 20.3523C175.189 18.0752 174.712 16.01 174.677 14.792L171.83 15.8158C169.902 16.5219 166.578 18.6931 168.169 23.3002Z" fill="url(#paint1_linear_2_4737)"/>
<path d="M198.62 26.0888C198.62 26.0888 198.425 26.336 197.364 26.0535C194.04 25.118 187.585 22.3996 176.622 26.3183C175.95 26.5654 174.5 24.2707 173.368 21.2169C172.236 18.1808 171.865 15.4977 172.537 15.2682V15.2329C183.501 11.3142 186.701 5.25961 188.611 2.43531C188.823 2.11757 188.735 2.41766 188.894 2.25879C187.745 3.7592 188.77 8.75468 191.051 14.8975C193.598 21.7288 196.869 26.7596 198.62 26.0888Z" fill="url(#paint2_linear_2_4737)"/>
<path d="M195.879 12.409C198.655 18.9578 199.858 25.083 198.584 26.0715C197.311 27.0954 194.057 22.5765 191.299 16.0276C188.523 9.47878 187.32 3.35357 188.593 2.36506C189.849 1.37656 193.12 5.86014 195.879 12.409Z" fill="url(#paint3_linear_2_4737)"/>
<path d="M194.606 14.0861C195.295 15.9043 194.393 17.8989 192.607 18.605C192.554 18.6403 192.466 18.658 192.395 18.6933C191.812 17.5283 191.246 16.2573 190.733 14.9158C190.397 13.9802 190.079 13.0976 189.813 12.2327C189.902 12.1974 189.973 12.1444 190.079 12.1268C191.882 11.403 193.898 12.3033 194.606 14.0861Z" fill="url(#paint4_linear_2_4737)"/>
<path d="M149.442 28.1552L149.354 21.3945L142.917 17.4229V29.0378L149.442 28.1552Z" fill="url(#paint5_linear_2_4737)"/>
<path d="M142.457 16.8226C142.457 16.8226 143.182 22.3123 147.585 22.3123C151.989 22.3123 154.181 22.683 154.181 18.2877C154.181 13.8924 155.278 9.5147 152.342 8.0496C149.407 6.58449 142.086 6.2138 142.457 12.4449C142.457 12.4449 140.618 10.9798 140.618 13.1686C140.618 15.3575 140.618 17.564 142.457 16.8226Z" fill="url(#paint6_linear_2_4737)"/>
<path d="M142.457 17.9167C142.457 17.9167 131.105 9.49672 138.797 3.65394C146.489 -2.20649 148.682 4.74836 155.649 0C155.649 0 162.245 5.48974 153.81 9.14368C153.81 9.14368 143.359 7.85509 144.102 13.7155C144.102 13.7155 143.005 12.2504 141.166 12.6211C139.345 12.9918 141.909 16.6457 142.457 17.9167Z" fill="url(#paint7_linear_2_4737)"/>
<path d="M160.671 147.075H156.25L145.623 98.4973L153.739 72.7256L158.761 73.0257L160.671 147.075Z" fill="url(#paint8_linear_2_4737)"/>
<path d="M156.286 146.917L155.419 149.671C155.119 150.659 155.844 151.648 156.887 151.648H169.601C169.601 151.648 169.902 149.282 166.931 148.7C163.978 148.117 161.308 146.935 161.308 146.935H156.286V146.917Z" fill="url(#paint9_linear_2_4737)"/>
<path d="M132.395 146.917L131.529 149.671C131.228 150.659 131.953 151.648 132.997 151.648H145.711C145.711 151.648 146.012 149.282 143.041 148.7C140.088 148.117 137.418 146.935 137.418 146.935H132.395V146.917Z" fill="url(#paint10_linear_2_4737)"/>
<path d="M154.323 69.7951L134.27 66.2471L132.502 146.934H137.506L154.323 69.7951Z" fill="url(#paint11_linear_2_4737)"/>
<path d="M178.266 28.2431L167.055 44.73L160.459 29.3552C159.363 26.7957 157.064 24.9599 154.323 24.448C151.688 23.9537 148.169 24.2891 146.047 24.1479C143.89 23.989 140.07 24.0773 136.657 25.0481C133.156 26.0543 130.574 29.0022 129.991 32.5855C128.823 39.558 127.179 51.0141 127.762 56.5391C128.647 64.7825 131.9 77.739 131.9 77.739H136.622L135.738 72.4435L161.113 73.326L158.602 50.5022L161.043 53.1146C161.909 54.0502 163.943 55.5859 165.658 55.9036C167.568 56.2743 169.283 54.7739 170.768 53.503L181.06 33.8211L178.266 28.2431Z" fill="url(#paint12_linear_2_4737)"/>
<path d="M136.622 77.7393C136.622 77.7393 137.506 80.6871 137.506 81.5697C137.506 82.4523 137.205 83.3349 136.622 82.4523C136.038 81.5697 136.321 84.5176 136.622 85.9827C136.923 87.4478 134.27 88.3304 132.201 85.9827C130.132 83.635 132.201 77.7393 132.201 77.7393H136.622Z" fill="url(#paint13_linear_2_4737)"/>
<path opacity="0.1" d="M158.761 50.3608V38.5693L161.078 53.1851L158.761 50.3608Z" fill="black"/>
<path opacity="0.1" d="M135.738 72.7263C135.738 72.7263 134.553 62.1175 134.854 57.122C135.154 52.1089 136.923 44.748 136.923 44.748L138.107 72.7263H135.738Z" fill="black"/>
<path d="M186.454 31.879C186.454 31.879 184.915 32.1614 184.066 30.9081C183.218 29.6548 182.245 26.4422 183.359 26.0185C184.473 25.5949 185.463 25.0477 185.746 26.8658" fill="url(#paint14_linear_2_4737)"/>
<path d="M179.15 27.6079C179.15 27.6079 180.317 26.4252 180.83 26.5664C181.361 26.7076 181.078 27.1313 181.078 27.5373C181.078 27.9432 179.539 28.7905 179.539 28.7905L179.15 27.6079Z" fill="#F7C4A3"/>
<g filter="url(#filter0_d_2_4737)">
<path d="M138.638 163.685C132.608 124.357 98.3198 88.7002 98.3198 88.7002H78.9564H59.5931C59.5931 88.7002 25.3227 124.357 19.275 163.685C16.2865 183.155 31.3527 200.737 51.0874 200.737H78.9564H106.825C126.578 200.737 141.626 183.173 138.638 163.685Z" fill="url(#paint15_linear_2_4737)"/>
</g>
<path d="M100.459 86.0522C100.459 87.5173 99.2392 88.7 97.7715 88.7H59.9113C58.4436 88.7 57.2588 87.5173 57.2588 86.0522C57.2588 84.5695 58.4436 83.3691 59.9113 83.3691H97.7891C99.2392 83.3691 100.459 84.5695 100.459 86.0522Z" fill="url(#paint16_linear_2_4737)"/>
<path d="M62.9529 83.3691H59.9114C58.1254 78.0383 45.2165 67.7296 42.5463 65.0465C39.8408 62.3457 50.6453 57.3149 53.2448 55.4615C54.8893 54.2965 53.7753 51.7369 52.7319 49.9541C55.1015 53.6257 61.1492 64.6052 62.9529 83.3691Z" fill="url(#paint17_linear_2_4737)"/>
<path d="M97.7716 83.3699H95.8618C96.6399 72.3374 102.864 55.9741 104.12 52.8145C103.908 54.0854 103.943 55.4975 104.35 56.8214C105.623 60.9343 112.714 59.2574 114.571 65.2061C116.463 71.1724 100.513 73.6437 97.7716 83.3699Z" fill="url(#paint18_linear_2_4737)"/>
<path d="M105.464 48.5071C105.11 49.2132 104.421 50.8548 104.155 52.7612C104.12 52.7965 104.12 52.7965 104.12 52.8142C102.864 55.9739 96.6399 72.3195 95.8618 83.3696H62.953C61.167 64.6056 55.1193 53.6262 52.732 49.9722C52.6436 49.831 52.5552 49.6721 52.4667 49.5309C52.0423 48.9131 51.8125 48.5777 51.8125 48.5777C51.6356 48.3483 51.724 48.0129 51.9893 47.8893C55.9857 46.1947 86.2951 28.2251 105.269 47.8893C105.429 48.0658 105.552 48.2776 105.464 48.5071Z" fill="url(#paint19_linear_2_4737)"/>
<path d="M74.6418 179.961V172.247C69.1953 172 63.8902 170.534 60.7957 168.752L63.236 159.237C66.6489 161.108 71.4587 162.821 76.7461 162.821C81.3791 162.821 84.5621 161.038 84.5621 157.79C84.5621 154.701 81.9627 152.759 75.9326 150.711C67.2147 147.781 61.2731 143.721 61.2731 135.849C61.2731 128.699 66.3129 123.086 75.0308 121.392V113.678H83.006V120.827C88.4525 121.074 92.1306 122.204 94.8185 123.51L92.4666 132.689C90.3446 131.789 86.6134 129.917 80.7425 129.917C75.4552 129.917 73.7399 132.195 73.7399 134.472C73.7399 137.155 76.5869 138.867 83.5011 141.462C93.1916 144.869 97.0997 149.352 97.0997 156.66C97.0997 163.897 91.9715 170.076 82.617 171.699V179.996H74.6418V179.961Z" fill="url(#paint20_linear_2_4737)"/>
<path d="M128.771 145.187C128.612 146.158 127.851 146.935 126.825 147.076C112.431 149.07 109.849 136.891 106.861 122.787C106.03 118.868 105.163 114.826 104.014 110.536C98.9388 91.6841 79.7876 87.9419 79.5931 87.9066C78.3553 87.6771 77.5242 86.4768 77.7541 85.2411C77.9839 84.0055 79.1687 83.1759 80.4242 83.4054C81.3261 83.5642 102.617 87.7301 108.435 109.336C109.62 113.749 110.539 118.038 111.335 121.834C114.589 137.173 116.445 143.898 126.207 142.557C127.462 142.38 128.612 143.263 128.788 144.499C128.806 144.746 128.806 144.975 128.771 145.187Z" fill="url(#paint21_linear_2_4737)"/>
<path d="M104.208 147.305C104.173 147.552 104.085 147.799 103.961 148.046C103.36 149.158 101.963 149.547 100.848 148.947C92.7318 144.498 93.1031 137.544 96.3746 117.191C99.3984 98.3387 79.6991 88.5243 78.868 88.1006C77.7363 87.5534 77.2588 86.1766 77.807 85.0469C78.3552 83.9171 79.7168 83.4405 80.8662 83.9877C81.0961 84.0937 104.474 95.6733 100.902 117.897C97.4532 139.326 98.2844 142.327 103.059 144.94C103.908 145.416 104.35 146.387 104.208 147.305Z" fill="url(#paint22_linear_2_4737)"/>
<g filter="url(#filter1_d_2_4737)">
<path d="M167.143 192.847H109.23C110.132 192.123 111.264 191.699 112.502 191.699H163.837C165.092 191.699 166.241 192.123 167.143 192.847Z" fill="url(#paint23_linear_2_4737)"/>
<path d="M167.126 201.072C166.224 201.796 165.092 202.22 163.854 202.22H112.519C111.282 202.22 110.15 201.796 109.248 201.072H167.126Z" fill="url(#paint24_linear_2_4737)"/>
<path d="M169.124 196.96C169.124 198.407 168.54 199.731 167.586 200.684C167.444 200.825 167.285 200.966 167.126 201.09H109.248C108.028 200.137 107.25 198.636 107.25 196.977C107.25 195.53 107.833 194.206 108.788 193.253C108.93 193.111 109.071 192.97 109.23 192.864H167.126C168.346 193.8 169.124 195.283 169.124 196.96Z" fill="url(#paint25_linear_2_4737)"/>
<path d="M163.218 182.326H105.322C106.224 181.602 107.356 181.179 108.594 181.179H159.929C161.184 181.179 162.316 181.602 163.218 182.326Z" fill="url(#paint26_linear_2_4737)"/>
<path d="M163.2 190.552C162.298 191.275 161.166 191.699 159.929 191.699H108.594C107.356 191.699 106.224 191.275 105.322 190.552H163.2Z" fill="url(#paint27_linear_2_4737)"/>
<path d="M165.216 186.439C165.216 187.886 164.632 189.21 163.677 190.164C163.536 190.305 163.377 190.446 163.218 190.57H105.322C104.102 189.616 103.324 188.116 103.324 186.457C103.324 185.009 103.908 183.685 104.862 182.732C105.004 182.591 105.145 182.45 105.305 182.344H163.218C164.438 183.279 165.216 184.762 165.216 186.439Z" fill="url(#paint28_linear_2_4737)"/>
<path d="M167.143 171.806H109.23C110.132 171.082 111.264 170.658 112.502 170.658H163.837C165.092 170.658 166.241 171.082 167.143 171.806Z" fill="url(#paint29_linear_2_4737)"/>
<path d="M167.126 180.031C166.224 180.755 165.092 181.179 163.854 181.179H112.519C111.281 181.179 110.15 180.755 109.248 180.031H167.126Z" fill="url(#paint30_linear_2_4737)"/>
<path d="M169.124 175.918C169.124 177.366 168.54 178.69 167.585 179.643C167.444 179.784 167.285 179.925 167.126 180.049H109.23C108.01 179.096 107.232 177.595 107.232 175.936C107.232 174.489 107.815 173.165 108.77 172.212C108.912 172.07 109.053 171.929 109.212 171.823H167.108C168.346 172.759 169.124 174.242 169.124 175.918Z" fill="url(#paint31_linear_2_4737)"/>
<path d="M163.218 161.285H105.322C106.224 160.561 107.356 160.138 108.594 160.138H159.929C161.184 160.138 162.316 160.561 163.218 161.285Z" fill="url(#paint32_linear_2_4737)"/>
<path d="M163.2 169.511C162.298 170.234 161.166 170.658 159.929 170.658H108.594C107.356 170.658 106.224 170.234 105.322 169.511H163.2Z" fill="url(#paint33_linear_2_4737)"/>
<path d="M165.216 165.398C165.216 166.845 164.632 168.169 163.677 169.123C163.536 169.264 163.377 169.405 163.218 169.529H105.322C104.102 168.575 103.324 167.075 103.324 165.416C103.324 163.968 103.908 162.644 104.862 161.691C105.004 161.55 105.145 161.409 105.305 161.303H163.218C164.438 162.238 165.216 163.721 165.216 165.398Z" fill="url(#paint34_linear_2_4737)"/>
<path d="M165.216 150.765H107.303C108.205 150.041 109.336 149.617 110.574 149.617H161.909C163.165 149.617 164.314 150.041 165.216 150.765Z" fill="url(#paint35_linear_2_4737)"/>
<path d="M165.198 159.008C164.296 159.732 163.165 160.155 161.927 160.155H110.592C109.354 160.155 108.222 159.732 107.321 159.008H165.198Z" fill="url(#paint36_linear_2_4737)"/>
<path d="M167.196 154.877C167.196 156.325 166.613 157.649 165.658 158.602C165.517 158.743 165.357 158.884 165.198 159.008H107.32C106.1 158.055 105.322 156.554 105.322 154.895C105.322 153.448 105.906 152.124 106.861 151.171C107.002 151.029 107.144 150.888 107.303 150.782H165.198C166.418 151.735 167.196 153.218 167.196 154.877Z" fill="url(#paint37_linear_2_4737)"/>
<path d="M167.143 201.161H167.126V200.984L167.143 201.161Z" fill="url(#paint38_linear_2_4737)"/>
<path d="M169.124 209.951C185.678 209.951 199.097 196.556 199.097 180.031C199.097 163.507 185.678 150.111 169.124 150.111C152.57 150.111 139.151 163.507 139.151 180.031C139.151 196.556 152.57 209.951 169.124 209.951Z" fill="url(#paint39_linear_2_4737)"/>
<path d="M169.124 152.618C153.952 152.618 141.662 164.886 141.662 180.032C141.662 184.762 142.864 189.211 144.968 193.094C149.619 201.637 158.691 207.445 169.106 207.445C179.539 207.445 188.611 201.637 193.262 193.076C195.366 189.193 196.569 184.745 196.569 180.032C196.586 164.904 184.296 152.618 169.124 152.618Z" fill="url(#paint40_linear_2_4737)"/>
<path d="M169.124 200.507C180.453 200.507 189.637 191.34 189.637 180.031C189.637 168.722 180.453 159.555 169.124 159.555C157.795 159.555 148.611 168.722 148.611 180.031C148.611 191.34 157.795 200.507 169.124 200.507Z" fill="url(#paint41_linear_2_4737)"/>
<path d="M171.706 196.748L170.574 193.006C167.886 193.694 165.11 193.747 163.341 193.341L163.129 188.363C165.057 188.769 167.656 188.893 170.22 188.116C172.466 187.428 173.757 186.104 173.28 184.515C172.82 183.015 171.264 182.45 168.045 182.344C163.377 182.203 159.893 181.108 158.744 177.278C157.683 173.801 159.31 170.341 163.288 168.24L162.157 164.498L166.029 163.333L167.09 166.81C169.778 166.122 171.723 166.14 173.226 166.387L173.439 171.188C172.272 171.065 170.185 170.712 167.338 171.559C164.774 172.335 164.279 173.695 164.615 174.789C165.004 176.095 166.648 176.501 170.379 176.748C175.578 176.978 178.142 178.584 179.221 182.132C180.282 185.645 178.708 189.405 174.394 191.558L175.614 195.583L171.706 196.748Z" fill="url(#paint42_linear_2_4737)"/>
<path opacity="0.46" d="M193.279 193.076C188.629 201.637 179.557 207.445 169.124 207.445C158.691 207.445 149.637 201.637 144.986 193.094C150.45 200.49 159.221 205.274 169.124 205.274C179.027 205.291 187.833 200.49 193.279 193.076Z" fill="url(#paint43_linear_2_4737)"/>
</g>
</g>
<defs>
<filter id="filter0_d_2_4737" x="13.896" y="87.7002" width="130.121" height="122.036" filterUnits="userSpaceOnUse" color-interpolation-filters="sRGB">
<feFlood flood-opacity="0" result="BackgroundImageFix"/>
<feColorMatrix in="SourceAlpha" type="matrix" values="0 0 0 0 0 0 0 0 0 0 0 0 0 0 0 0 0 0 127 0" result="hardAlpha"/>
<feOffset dy="4"/>
<feGaussianBlur stdDeviation="2.5"/>
<feComposite in2="hardAlpha" operator="out"/>
<feColorMatrix type="matrix" values="0 0 0 0 0 0 0 0 0 0 0 0 0 0 0 0 0 0 0.25 0"/>
<feBlend mode="normal" in2="BackgroundImageFix" result="effect1_dropShadow_2_4737"/>
<feBlend mode="normal" in="SourceGraphic" in2="effect1_dropShadow_2_4737" result="shape"/>
</filter>
<filter id="filter1_d_2_4737" x="99.324" y="149.617" width="103.773" height="68.334" filterUnits="userSpaceOnUse" color-interpolation-filters="sRGB">
<feFlood flood-opacity="0" result="BackgroundImageFix"/>
<feColorMatrix in="SourceAlpha" type="matrix" values="0 0 0 0 0 0 0 0 0 0 0 0 0 0 0 0 0 0 127 0" result="hardAlpha"/>
<feOffset dy="4"/>
<feGaussianBlur stdDeviation="2"/>
<feComposite in2="hardAlpha" operator="out"/>
<feColorMatrix type="matrix" values="0 0 0 0 0 0 0 0 0 0 0 0 0 0 0 0 0 0 0.25 0"/>
<feBlend mode="normal" in2="BackgroundImageFix" result="effect1_dropShadow_2_4737"/>
<feBlend mode="normal" in="SourceGraphic" in2="effect1_dropShadow_2_4737" result="shape"/>
</filter>
<linearGradient id="paint0_linear_2_4737" x1="185.834" y1="29.148" x2="178.927" y2="29.148" gradientUnits="userSpaceOnUse">
<stop stop-color="#BE73DE"/>
<stop offset="1" stop-color="#514EB7"/>
</linearGradient>
<linearGradient id="paint1_linear_2_4737" x1="178.658" y1="20.8244" x2="167.757" y2="20.8244" gradientUnits="userSpaceOnUse">
<stop stop-color="#BE73DE"/>
<stop offset="1" stop-color="#514EB7"/>
</linearGradient>
<linearGradient id="paint2_linear_2_4737" x1="206.317" y1="6.09788" x2="168.636" y2="30.2804" gradientUnits="userSpaceOnUse">
<stop stop-color="#FFD571"/>
<stop offset="0.2509" stop-color="#FFBD60"/>
<stop offset="0.7782" stop-color="#FF8035"/>
<stop offset="1" stop-color="#FF6421"/>
</linearGradient>
<linearGradient id="paint3_linear_2_4737" x1="207.627" y1="4.10371" x2="188.495" y2="17.9618" gradientUnits="userSpaceOnUse">
<stop stop-color="#FFD571"/>
<stop offset="0.2509" stop-color="#FFBD60"/>
<stop offset="0.7782" stop-color="#FF8035"/>
<stop offset="1" stop-color="#FF6421"/>
</linearGradient>
<linearGradient id="paint4_linear_2_4737" x1="194.842" y1="15.2797" x2="189.812" y2="15.2797" gradientUnits="userSpaceOnUse">
<stop stop-color="#BE73DE"/>
<stop offset="1" stop-color="#514EB7"/>
</linearGradient>
<linearGradient id="paint5_linear_2_4737" x1="149.446" y1="23.2309" x2="142.917" y2="23.2309" gradientUnits="userSpaceOnUse">
<stop stop-color="#E3CBBA"/>
<stop offset="0.2529" stop-color="#DBBAA2"/>
<stop offset="0.7844" stop-color="#C88F65"/>
<stop offset="1" stop-color="#BF7C4A"/>
</linearGradient>
<linearGradient id="paint6_linear_2_4737" x1="163.717" y1="13.84" x2="139.553" y2="15.316" gradientUnits="userSpaceOnUse">
<stop stop-color="#FFECDC"/>
<stop offset="0.2378" stop-color="#F6DAC4"/>
<stop offset="0.7374" stop-color="#E0AD87"/>
<stop offset="1" stop-color="#D39364"/>
</linearGradient>
<linearGradient id="paint7_linear_2_4737" x1="170.834" y1="-7.12112" x2="135.504" y2="13.8199" gradientUnits="userSpaceOnUse">
<stop stop-color="#808080"/>
<stop offset="0.6386" stop-color="#52524D"/>
<stop offset="1" stop-color="#3C3C35"/>
</linearGradient>
<linearGradient id="paint8_linear_2_4737" x1="160.671" y1="109.908" x2="145.626" y2="109.908" gradientUnits="userSpaceOnUse">
<stop stop-color="#03314B"/>
<stop offset="1" stop-color="#514EB7"/>
</linearGradient>
<linearGradient id="paint9_linear_2_4737" x1="174.91" y1="150.943" x2="151.705" y2="148.507" gradientUnits="userSpaceOnUse">
<stop stop-color="#808080"/>
<stop offset="0.6386" stop-color="#52524D"/>
<stop offset="1" stop-color="#3C3C35"/>
</linearGradient>
<linearGradient id="paint10_linear_2_4737" x1="150.725" y1="152.101" x2="127.52" y2="147.894" gradientUnits="userSpaceOnUse">
<stop stop-color="#808080"/>
<stop offset="0.6386" stop-color="#52524D"/>
<stop offset="1" stop-color="#3C3C35"/>
</linearGradient>
<linearGradient id="paint11_linear_2_4737" x1="154.329" y1="106.595" x2="132.499" y2="106.595" gradientUnits="userSpaceOnUse">
<stop stop-color="#03314B"/>
<stop offset="1" stop-color="#514EB7"/>
</linearGradient>
<linearGradient id="paint12_linear_2_4737" x1="113.08" y1="81.1622" x2="187.222" y2="13.3723" gradientUnits="userSpaceOnUse">
<stop stop-color="#30944C"/>
<stop offset="0.41" stop-color="#8ABB62"/>
<stop offset="0.8161" stop-color="#DEDF77"/>
<stop offset="1" stop-color="#FFED7F"/>
</linearGradient>
<linearGradient id="paint13_linear_2_4737" x1="132.501" y1="94.2935" x2="135.731" y2="73.1119" gradientUnits="userSpaceOnUse">
<stop stop-color="#FFECDC"/>
<stop offset="0.2378" stop-color="#F6DAC4"/>
<stop offset="0.7374" stop-color="#E0AD87"/>
<stop offset="1" stop-color="#D39364"/>
</linearGradient>
<linearGradient id="paint14_linear_2_4737" x1="186.455" y1="28.7379" x2="182.87" y2="28.7379" gradientUnits="userSpaceOnUse">
<stop stop-color="#FFECDC"/>
<stop offset="0.2378" stop-color="#F6DAC4"/>
<stop offset="0.7374" stop-color="#E0AD87"/>
<stop offset="1" stop-color="#D39364"/>
</linearGradient>
<linearGradient id="paint15_linear_2_4737" x1="68.4464" y1="83.5748" x2="88.1935" y2="243.813" gradientUnits="userSpaceOnUse">
<stop stop-color="#BE73DE"/>
<stop offset="1" stop-color="#514EB7"/>
</linearGradient>
<linearGradient id="paint16_linear_2_4737" x1="57.2531" y1="86.0357" x2="100.458" y2="86.0357" gradientUnits="userSpaceOnUse">
<stop stop-color="#F7F7F7"/>
<stop offset="1" stop-color="white"/>
</linearGradient>
<linearGradient id="paint17_linear_2_4737" x1="39.7837" y1="69.8617" x2="64.6621" y2="65.4506" gradientUnits="userSpaceOnUse">
<stop stop-color="#BE73DE"/>
<stop offset="1" stop-color="#514EB7"/>
</linearGradient>
<linearGradient id="paint18_linear_2_4737" x1="117.422" y1="69.3435" x2="92.7614" y2="67.5788" gradientUnits="userSpaceOnUse">
<stop stop-color="#BE73DE"/>
<stop offset="1" stop-color="#514EB7"/>
</linearGradient>
<linearGradient id="paint19_linear_2_4737" x1="78.0013" y1="32.9305" x2="80.6342" y2="100.847" gradientUnits="userSpaceOnUse">
<stop stop-color="#BE73DE"/>
<stop offset="1" stop-color="#514EB7"/>
</linearGradient>
<linearGradient id="paint20_linear_2_4737" x1="59.7425" y1="126.054" x2="123.951" y2="197.525" gradientUnits="userSpaceOnUse">
<stop stop-color="#FFD571"/>
<stop offset="0.2509" stop-color="#FFBD60"/>
<stop offset="0.7782" stop-color="#FF8035"/>
<stop offset="1" stop-color="#FF6421"/>
</linearGradient>
<linearGradient id="paint21_linear_2_4737" x1="98.7114" y1="143.481" x2="107.644" y2="87.7779" gradientUnits="userSpaceOnUse">
<stop stop-color="#F7F7F7"/>
<stop offset="1" stop-color="white"/>
</linearGradient>
<linearGradient id="paint22_linear_2_4737" x1="86.0419" y1="146.708" x2="95.7315" y2="86.2813" gradientUnits="userSpaceOnUse">
<stop stop-color="#F7F7F7"/>
<stop offset="1" stop-color="white"/>
</linearGradient>
<linearGradient id="paint23_linear_2_4737" x1="138.185" y1="192.686" x2="138.185" y2="191.848" gradientUnits="userSpaceOnUse">
<stop stop-color="#FDC830"/>
<stop offset="1" stop-color="#F37335"/>
</linearGradient>
<linearGradient id="paint24_linear_2_4737" x1="138.148" y1="202.306" x2="138.182" y2="201.084" gradientUnits="userSpaceOnUse">
<stop stop-color="#FDC830"/>
<stop offset="1" stop-color="#F37335"/>
</linearGradient>
<linearGradient id="paint25_linear_2_4737" x1="138.087" y1="193.236" x2="138.365" y2="203.919" gradientUnits="userSpaceOnUse">
<stop stop-color="#FFC05B"/>
<stop offset="0.5642" stop-color="#FFD980"/>
<stop offset="1" stop-color="#FFE999"/>
</linearGradient>
<linearGradient id="paint26_linear_2_4737" x1="134.268" y1="182.165" x2="134.268" y2="181.327" gradientUnits="userSpaceOnUse">
<stop stop-color="#FDC830"/>
<stop offset="1" stop-color="#F37335"/>
</linearGradient>
<linearGradient id="paint27_linear_2_4737" x1="134.23" y1="191.785" x2="134.265" y2="190.563" gradientUnits="userSpaceOnUse">
<stop stop-color="#FDC830"/>
<stop offset="1" stop-color="#F37335"/>
</linearGradient>
<linearGradient id="paint28_linear_2_4737" x1="134.169" y1="182.715" x2="134.448" y2="193.398" gradientUnits="userSpaceOnUse">
<stop stop-color="#FFC05B"/>
<stop offset="0.5642" stop-color="#FFD980"/>
<stop offset="1" stop-color="#FFE999"/>
</linearGradient>
<linearGradient id="paint29_linear_2_4737" x1="138.184" y1="171.644" x2="138.184" y2="170.806" gradientUnits="userSpaceOnUse">
<stop stop-color="#FDC830"/>
<stop offset="1" stop-color="#F37335"/>
</linearGradient>
<linearGradient id="paint30_linear_2_4737" x1="138.146" y1="181.264" x2="138.181" y2="180.042" gradientUnits="userSpaceOnUse">
<stop stop-color="#FDC830"/>
<stop offset="1" stop-color="#F37335"/>
</linearGradient>
<linearGradient id="paint31_linear_2_4737" x1="138.085" y1="172.193" x2="138.364" y2="182.877" gradientUnits="userSpaceOnUse">
<stop stop-color="#FFC05B"/>
<stop offset="0.5642" stop-color="#FFD980"/>
<stop offset="1" stop-color="#FFE999"/>
</linearGradient>
<linearGradient id="paint32_linear_2_4737" x1="134.267" y1="161.122" x2="134.267" y2="160.284" gradientUnits="userSpaceOnUse">
<stop stop-color="#FDC830"/>
<stop offset="1" stop-color="#F37335"/>
</linearGradient>
<linearGradient id="paint33_linear_2_4737" x1="134.229" y1="170.742" x2="134.264" y2="169.52" gradientUnits="userSpaceOnUse">
<stop stop-color="#FDC830"/>
<stop offset="1" stop-color="#F37335"/>
</linearGradient>
<linearGradient id="paint34_linear_2_4737" x1="134.168" y1="161.672" x2="134.447" y2="172.355" gradientUnits="userSpaceOnUse">
<stop stop-color="#FFC05B"/>
<stop offset="0.5642" stop-color="#FFD980"/>
<stop offset="1" stop-color="#FFE999"/>
</linearGradient>
<linearGradient id="paint35_linear_2_4737" x1="136.258" y1="150.609" x2="136.258" y2="149.771" gradientUnits="userSpaceOnUse">
<stop stop-color="#FDC830"/>
<stop offset="1" stop-color="#F37335"/>
</linearGradient>
<linearGradient id="paint36_linear_2_4737" x1="136.22" y1="160.229" x2="136.255" y2="159.007" gradientUnits="userSpaceOnUse">
<stop stop-color="#FDC830"/>
<stop offset="1" stop-color="#F37335"/>
</linearGradient>
<linearGradient id="paint37_linear_2_4737" x1="136.159" y1="151.159" x2="136.438" y2="161.842" gradientUnits="userSpaceOnUse">
<stop stop-color="#FFC05B"/>
<stop offset="0.5642" stop-color="#FFD980"/>
<stop offset="1" stop-color="#FFE999"/>
</linearGradient>
<linearGradient id="paint38_linear_2_4737" x1="167.125" y1="201.078" x2="167.142" y2="201.078" gradientUnits="userSpaceOnUse">
<stop offset="0.0027027" stop-color="#C662C2"/>
<stop offset="0.1241" stop-color="#B95DBC"/>
<stop offset="0.3491" stop-color="#9751AB"/>
<stop offset="0.6531" stop-color="#5F3D90"/>
<stop offset="1" stop-color="#17236D"/>
</linearGradient>
<linearGradient id="paint39_linear_2_4737" x1="139.152" y1="180.035" x2="199.097" y2="180.035" gradientUnits="userSpaceOnUse">
<stop stop-color="#FFC05B"/>
<stop offset="0.5642" stop-color="#FFD980"/>
<stop offset="1" stop-color="#FFE999"/>
</linearGradient>
<linearGradient id="paint40_linear_2_4737" x1="167.312" y1="207.387" x2="170.925" y2="152.684" gradientUnits="userSpaceOnUse">
<stop stop-color="#FDC830"/>
<stop offset="1" stop-color="#F37335"/>
</linearGradient>
<linearGradient id="paint41_linear_2_4737" x1="181.752" y1="197.453" x2="156.034" y2="161.851" gradientUnits="userSpaceOnUse">
<stop stop-color="#FFC05B"/>
<stop offset="0.5642" stop-color="#FFD980"/>
<stop offset="1" stop-color="#FFE999"/>
</linearGradient>
<linearGradient id="paint42_linear_2_4737" x1="158.408" y1="180.028" x2="179.502" y2="180.028" gradientUnits="userSpaceOnUse">
<stop stop-color="#FDC830"/>
<stop offset="1" stop-color="#F37335"/>
</linearGradient>
<linearGradient id="paint43_linear_2_4737" x1="144.981" y1="200.264" x2="193.281" y2="200.264" gradientUnits="userSpaceOnUse">
<stop stop-color="#FDC830"/>
<stop offset="1" stop-color="#F37335"/>
</linearGradient>
<clipPath id="clip0_2_4737">
<rect width="229" height="215" fill="white"/>
</clipPath>
</defs>
</svg>
