<svg width="88" height="117" viewBox="0 0 88 117" fill="none" xmlns="http://www.w3.org/2000/svg">
<path d="M71.2989 61.0017C68.4899 61.0017 66.2426 58.778 66.2426 55.9983V29.4648C66.2426 18.6998 57.4069 9.95637 46.5282 9.95637H41.4208C30.5421 9.95637 21.7063 18.6998 21.7063 29.4648V55.9983C21.7063 58.778 19.4591 61.0017 16.65 61.0017C13.841 61.0017 11.5938 58.778 11.5938 55.9983V29.4648C11.6448 13.2415 24.9751 0 41.4208 0H46.5792C63.025 0 76.3552 13.2415 76.3552 29.4648V55.9983C76.3552 58.778 74.108 61.0017 71.2989 61.0017Z" fill="#03314B"/>
<path d="M46.5791 0H44.0254V10.0069H46.5791C57.4578 10.0069 66.2935 18.7503 66.2935 29.5153V56.0488C66.2935 58.8285 68.5408 61.0523 71.3498 61.0523C74.1589 61.0523 76.4061 58.8285 76.4061 56.0488V29.4648C76.355 13.2415 63.0248 0 46.5791 0Z" fill="#03314B"/>
<path d="M88 108.408C88 113.159 84.1184 116.949 79.3685 116.949H8.63146C3.83053 116.949 0 113.108 0 108.408V49.8324C0 45.0816 3.8816 41.2911 8.63146 41.2911H79.3175C84.1184 41.2911 87.9489 45.1322 87.9489 49.8324V108.408H88Z" fill="#3500D4"/>
<path d="M79.3176 41.2911H43.9746V117H79.3176C84.1185 117 87.9491 113.159 87.9491 108.459V49.8324C88.0001 45.1322 84.1185 41.2911 79.3176 41.2911Z" fill="#F61C7A"/>
<path d="M76.6617 88.1922C76.6617 90.0117 75.1805 91.4773 73.3419 91.4773H14.6582C12.8195 91.4773 11.3384 90.0117 11.3384 88.1922V70.0484C11.3384 68.229 12.8195 66.7633 14.6582 66.7633H73.3419C75.1805 66.7633 76.6617 68.229 76.6617 70.0484V88.1922Z" fill="#908FEC"/>
<path d="M73.342 66.7633H43.9746V91.5279H73.342C75.1806 91.5279 76.6618 90.0622 76.6618 88.2428V70.0989C76.6618 68.229 75.1806 66.7633 73.342 66.7633Z" fill="#F178B6"/>
<path d="M23.1873 79.6004L22.3701 79.1456L23.1873 78.6907C23.647 78.438 23.8002 77.8821 23.5448 77.4272C23.2895 76.9724 22.7277 76.8207 22.268 77.0734L21.4508 77.5283V76.6186C21.4508 76.1132 21.0422 75.6583 20.4804 75.6583C19.9697 75.6583 19.51 76.0626 19.51 76.6186V77.5283L18.6928 77.0734C18.2332 76.8207 17.6714 76.9724 17.416 77.4272C17.1606 77.8821 17.3138 78.438 17.7735 78.6907L18.5907 79.1456L17.7735 79.6004C17.3138 79.8531 17.1606 80.4091 17.416 80.8639C17.6714 81.3188 18.2332 81.4704 18.6928 81.2177L19.51 80.7629V81.6726C19.51 82.178 19.9186 82.6328 20.4804 82.6328C20.9911 82.6328 21.4508 82.2285 21.4508 81.6726V80.7629L22.268 81.2177C22.7277 81.4704 23.2895 81.3188 23.5448 80.8639C23.8002 80.4091 23.647 79.8531 23.1873 79.6004Z" fill="white"/>
<path d="M34.9344 79.6004L34.1172 79.1456L34.9344 78.6907C35.3941 78.438 35.5473 77.8821 35.2919 77.4272C35.0365 76.9724 34.4747 76.8207 34.0151 77.0734L33.1979 77.5283V76.6186C33.1979 76.1132 32.7893 75.6583 32.2275 75.6583C31.7167 75.6583 31.2571 76.0626 31.2571 76.6186V77.5283L30.4399 77.0734C29.9802 76.8207 29.4184 76.9724 29.1631 77.4272C28.9077 77.8821 29.0609 78.438 29.5206 78.6907L30.3378 79.1456L29.5206 79.6004C29.0609 79.8531 28.9077 80.4091 29.1631 80.8639C29.4184 81.3188 29.9802 81.4704 30.4399 81.2177L31.2571 80.7629V81.6726C31.2571 82.178 31.6657 82.6328 32.2275 82.6328C32.7382 82.6328 33.1979 82.2285 33.1979 81.6726V80.7629L34.0151 81.2177C34.4747 81.4704 35.0365 81.3188 35.2919 80.8639C35.5473 80.4091 35.3941 79.8531 34.9344 79.6004Z" fill="white"/>
<path d="M46.6815 79.6004L45.8643 79.1456L46.6815 78.6907C47.1411 78.438 47.2944 77.8821 47.039 77.4272C46.7836 76.9724 46.2218 76.8207 45.7621 77.0734L44.945 77.5283V76.6186C44.945 76.1132 44.5364 75.6583 43.9746 75.6583C43.4638 75.6583 43.0042 76.0626 43.0042 76.6186V77.5283L42.187 77.0734C41.7273 76.8207 41.1655 76.9724 40.9101 77.4272C40.6548 77.8821 40.808 78.438 41.2676 78.6907L42.0848 79.1456L41.2676 79.6004C40.808 79.8531 40.6548 80.4091 40.9101 80.8639C41.1655 81.3188 41.7273 81.4704 42.187 81.2177L43.0042 80.7629V81.6726C43.0042 82.178 43.4127 82.6328 43.9746 82.6328C44.4853 82.6328 44.945 82.2285 44.945 81.6726V80.7629L45.7621 81.2177C46.2218 81.4704 46.7836 81.3188 47.039 80.8639C47.2944 80.4091 47.1411 79.8531 46.6815 79.6004Z" fill="white"/>
<path d="M58.428 79.6004L57.6109 79.1456L58.428 78.6907C58.8877 78.438 59.0409 77.8821 58.7856 77.4272C58.5302 76.9724 57.9684 76.8207 57.5087 77.0734L56.6915 77.5283V76.6186C56.6915 76.1132 56.2829 75.6583 55.7211 75.6583C55.2104 75.6583 54.7507 76.0626 54.7507 76.6186V77.5283L53.9336 77.0734C53.4739 76.8207 52.9121 76.9724 52.6567 77.4272C52.4013 77.8821 52.5546 78.438 53.0142 78.6907L53.8314 79.1456L53.0142 79.6004C52.5546 79.8531 52.4013 80.4091 52.6567 80.8639C52.9121 81.3188 53.4739 81.4704 53.9336 81.2177L54.7507 80.7629V81.6726C54.7507 82.178 55.1593 82.6328 55.7211 82.6328C56.2319 82.6328 56.6915 82.2285 56.6915 81.6726V80.7629L57.5087 81.2177C57.9684 81.4704 58.5302 81.3188 58.7856 80.8639C59.0409 80.4091 58.8877 79.8531 58.428 79.6004Z" fill="white"/>
<path d="M70.1751 79.6004L69.3579 79.1456L70.1751 78.6907C70.6348 78.438 70.788 77.8821 70.5326 77.4272C70.2773 76.9724 69.7155 76.8207 69.2558 77.0734L68.4386 77.5283V76.6186C68.4386 76.1132 68.03 75.6583 67.4682 75.6583C66.9575 75.6583 66.4978 76.0626 66.4978 76.6186V77.5283L65.6806 77.0734C65.221 76.8207 64.6591 76.9724 64.4038 77.4272C64.1484 77.8821 64.3016 78.438 64.7613 78.6907L65.5785 79.1456L64.7613 79.6004C64.3016 79.8531 64.1484 80.4091 64.4038 80.8639C64.6591 81.3188 65.221 81.4704 65.6806 81.2177L66.4978 80.7629V81.6726C66.4978 82.178 66.9064 82.6328 67.4682 82.6328C67.9789 82.6328 68.4386 82.2285 68.4386 81.6726V80.7629L69.2558 81.2177C69.7155 81.4704 70.2773 81.3188 70.5326 80.8639C70.788 80.4091 70.6348 79.8531 70.1751 79.6004Z" fill="white"/>
</svg>
