<svg width="32" height="28" viewBox="0 0 32 28" fill="none" xmlns="http://www.w3.org/2000/svg">
<g clip-path="url(#clip0_2_2951)">
<path d="M31.483 7.61983V24.1699C31.483 24.8459 31.2987 25.4808 30.971 26.0339C30.336 27.099 29.1685 27.8159 27.8371 27.8159H5.14216C1.39381 27.8159 -0.142403 22.9819 2.9505 20.8312L9.48451 16.284L13.9088 13.2116L20.9958 8.27528L26.0141 4.75224C28.3287 3.15458 31.483 4.7932 31.483 7.61983Z" fill="#3500D4"/>
<path opacity="0.24" d="M31.481 7.61983V24.1699C31.481 24.8459 31.2966 25.4808 30.9689 26.0339C30.3339 27.099 29.1664 27.8159 27.835 27.8159H15.2176C11.7765 25.1326 9.54389 20.9746 9.48244 16.284L13.9067 13.2116L20.9938 8.27528L26.012 4.75224C28.3266 3.15458 31.481 4.7932 31.481 7.61983Z" fill="#E9E9FB"/>
<path opacity="0.24" d="M31.4834 7.61983V22.9205C25.4 21.077 20.9757 15.4238 20.9757 8.74638C20.9757 8.58252 20.9757 8.43914 20.9757 8.27528L26.0145 4.75224C28.3291 3.15458 31.4834 4.7932 31.4834 7.61983Z" fill="#F61C7A"/>
<path d="M12.8002 20.6467H8.99041C8.66269 20.6467 8.39641 20.9129 8.39641 21.2407V28H13.4147V21.2407C13.4147 20.9129 13.1279 20.6467 12.8002 20.6467Z" fill="white"/>
<path d="M19.8456 18.3731H16.0358C15.7081 18.3731 15.4418 18.6394 15.4418 18.9671V28H20.4601V18.9876C20.4396 18.6394 20.1734 18.3731 19.8456 18.3731Z" fill="white"/>
<path d="M26.8731 15.9152H23.0633C22.7356 15.9152 22.4693 16.1814 22.4693 16.5092V28H27.4876V16.5296C27.4671 16.1814 27.2009 15.9152 26.8731 15.9152Z" fill="white"/>
<path d="M24.2926 0.327848L19.5406 0.000123806L20.79 1.74116C18.9466 3.33882 0 18.4756 0 18.4756L21.9166 3.33882L23.1456 5.05937L24.2926 0.327848Z" fill="#3500D4"/>
</g>
<defs>
<clipPath id="clip0_2_2951">
<rect width="31.0406" height="27.6074" fill="white" transform="scale(1.01422)"/>
</clipPath>
</defs>
</svg>
