<svg width="116" height="73" viewBox="0 0 116 73" fill="none" xmlns="http://www.w3.org/2000/svg">
<path d="M91.3806 25.6953C87.8957 25.6953 84.9917 28.6153 84.9917 32.1193C84.9917 35.6233 87.8957 38.5433 91.3806 38.5433C94.8654 38.5433 97.7695 35.6233 97.7695 32.1193C97.9631 28.6153 95.059 25.6953 91.3806 25.6953ZM91.3806 34.65C90.0254 34.65 88.8638 33.482 88.8638 32.1193C88.8638 30.7566 90.0254 29.5886 91.3806 29.5886C92.7358 29.5886 93.8974 30.7566 93.8974 32.1193C93.8974 33.482 92.7358 34.65 91.3806 34.65Z" fill="#3500D4"/>
<path d="M105.126 15.1836H71.4393V29.9783H72.601L72.7946 32.7036C73.9562 32.8983 74.9242 33.2876 75.8922 33.6769L77.6346 31.5356L80.7323 33.8716L79.377 36.4023C80.1515 37.1809 80.7323 37.9596 81.3131 38.9329L84.0235 38.3489L85.1851 42.0476L82.6683 43.0209C82.6683 43.6049 82.8619 43.9943 82.8619 44.5783C82.8619 45.1623 82.8619 45.7463 82.6683 46.1356L85.1851 47.1089L84.0235 50.8076L81.3131 50.4183C80.7323 51.3916 80.1515 52.1703 79.377 52.9489L80.9259 55.2849L77.8282 57.6209L76.0858 55.4796C75.1178 55.8689 74.1498 56.2583 72.9882 56.4529L72.7946 59.1783H68.9225L68.7289 56.4529C67.5673 56.2583 66.5993 55.8689 65.6313 55.4796L63.8888 57.6209L60.7912 55.2849L62.34 52.9489C61.9528 52.5596 61.5656 51.9756 61.1784 51.5863C60.9848 51.5863 60.5976 51.5863 60.404 51.5863H45.4966V55.2849C45.4966 60.7356 49.9494 65.2129 55.3703 65.2129H95.4461C97.5757 70.0796 103.771 72.6103 108.224 72.9996C105.901 71.4423 103.965 68.5223 102.997 65.2129H105.32C110.741 65.2129 115.194 60.7356 115.194 55.2849V25.1116C115 19.6609 110.547 15.1836 105.126 15.1836ZM101.448 35.8183L99.5117 35.6236C99.3181 36.4023 98.9309 36.9863 98.3501 37.5703L99.5117 39.1276L97.3821 41.0743L95.8333 39.7116C95.2525 40.1009 94.4781 40.4903 93.7037 40.6849V42.6316L90.7996 43.0209L90.4124 41.0743C89.638 41.0743 88.8636 40.8796 88.0892 40.6849L86.9276 42.4369L84.4107 41.0743L85.1851 39.3223C84.6043 38.7383 84.0235 38.3489 83.6363 37.5703L81.7003 38.3489L81.3131 35.4289L83.0555 34.4556C83.0555 34.0663 82.8619 33.6769 82.8619 33.2876C82.8619 32.8983 82.8619 32.5089 82.8619 32.1196L80.9259 31.5356L81.5067 28.8103L83.4427 29.0049C83.6363 28.2263 84.0235 27.6423 84.6043 27.0583L83.2491 25.5009L85.3787 23.5543L86.9276 24.9169C87.5084 24.5276 88.2828 24.1383 89.0572 23.9436V21.9969L91.9612 21.6076L92.3484 23.5543C93.1228 23.5543 93.8973 23.7489 94.6717 23.9436L95.8333 22.1916L98.3501 23.5543L97.5757 25.3063C98.1565 25.8903 98.7373 26.2796 99.1245 27.0583L101.061 26.2796L102.222 28.8103L100.48 29.7836C100.48 30.1729 100.673 30.5623 100.673 30.9516C100.673 31.3409 100.673 31.7303 100.673 32.1196L102.609 32.7036L101.448 35.8183Z" fill="#3500D4"/>
<path d="M70.6648 53.7277C75.5048 53.7277 79.5705 49.6397 79.5705 44.773C79.5705 40.101 76.0856 36.2077 71.4392 35.8184V37.181C75.1176 37.5704 78.2153 40.685 78.2153 44.773C78.2153 49.0557 74.924 52.365 70.6648 52.365C68.7287 52.365 66.9863 51.5864 65.6311 50.4184C65.2439 50.613 64.8567 50.8077 64.2759 51.0024C65.8247 52.5597 68.1479 53.7277 70.6648 53.7277Z" fill="#3500D4"/>
<path d="M60.0168 0H9.87374C4.45286 0 0 4.47733 0 9.928V40.1013C0 45.552 4.45286 50.0293 9.87374 50.0293H12.197C11.229 53.144 9.29293 56.2587 6.9697 57.816C11.4226 57.6213 17.6178 55.0907 19.7475 50.0293H60.0168C65.4377 50.0293 69.8906 45.552 69.8906 40.1013V9.928C69.8906 4.47733 65.4377 0 60.0168 0ZM36.2037 36.4027H10.6481V33.6773H36.3973V36.4027H36.2037ZM36.2037 32.12H10.6481V29.3947H36.3973V32.12H36.2037ZM36.2037 28.032H10.6481V25.3067H36.3973V28.032H36.2037ZM36.2037 23.7493H10.6481V21.024H36.3973V23.7493H36.2037ZM36.2037 18.4933H10.6481V13.2373H36.3973V18.4933H36.2037ZM45.6902 35.624C45.1094 36.208 44.335 36.4027 43.367 36.4027C42.399 36.4027 41.6246 36.208 41.0438 35.624C40.463 35.04 40.2694 34.456 40.2694 33.4827C40.2694 32.5093 40.463 31.7307 41.0438 31.3413C41.6246 30.7573 42.399 30.5627 43.5606 30.5627C44.5286 30.5627 45.4966 30.7573 45.8838 31.3413C46.4646 31.9253 46.6582 32.5093 46.6582 33.4827C46.6582 34.2613 46.271 35.04 45.6902 35.624ZM45.8838 28.032H40.8502L40.0758 13.2373H46.8518L45.8838 28.032ZM57.3064 35.624C56.7256 36.208 55.9512 36.4027 54.9832 36.4027C54.0151 36.4027 53.2407 36.208 52.6599 35.624C52.0791 35.04 51.8855 34.456 51.8855 33.4827C51.8855 32.5093 52.0791 31.7307 52.6599 31.3413C53.2407 30.7573 54.0151 30.5627 54.9832 30.5627C55.9512 30.5627 56.7256 30.7573 57.3064 31.3413C57.8872 31.9253 58.0808 32.5093 58.0808 33.4827C58.0808 34.456 57.8872 35.04 57.3064 35.624ZM62.1465 21.9973C61.5657 22.9707 60.5976 23.7493 59.436 24.528C58.2744 25.3067 57.6936 25.696 57.5 26.0853C57.3064 26.4747 57.1128 26.864 57.1128 27.2533V28.032H52.4663V26.6693C52.4663 25.696 52.6599 24.9173 53.0471 24.1387C53.4343 23.36 54.2088 22.776 55.1768 22.192C55.9512 21.608 56.532 21.2187 56.9192 20.8293C57.3064 20.44 57.5 19.856 57.5 19.4667C57.5 19.0773 57.3064 18.688 56.9192 18.4933C56.532 18.2987 55.9512 18.104 55.3704 18.104C53.8215 18.104 52.0791 18.688 49.9495 19.6613L47.8199 15.5733C50.3367 14.2107 53.0471 13.432 55.7576 13.432C58.0808 13.432 59.8232 14.016 61.1784 14.9893C62.5337 15.9627 63.1145 17.3253 63.1145 19.0773C63.1145 20.0507 62.7273 21.2187 62.1465 21.9973Z" fill="#F61C7A"/>
</svg>
