<svg width="32" height="13" viewBox="0 0 32 13" fill="none" xmlns="http://www.w3.org/2000/svg">
<path fill-rule="evenodd" clip-rule="evenodd" d="M5.84583 1.67614C5.46978 2.1145 4.87071 2.46186 4.27264 2.41097C4.19363 1.81998 4.49166 1.18691 4.8357 0.794539C5.21075 0.347358 5.86683 0.0264187 6.3989 0C6.4619 0.617416 6.21587 1.22409 5.84683 1.67614H5.84583ZM6.39289 2.52741C5.86332 2.49581 5.37941 2.68401 4.98892 2.83587C4.73857 2.93324 4.52662 3.01567 4.36565 3.01567C4.1837 3.01567 3.96253 2.92925 3.71458 2.83236C3.38873 2.70503 3.01661 2.55962 2.62643 2.56851C1.73533 2.57927 0.902228 3.07731 0.449173 3.87868C-0.493942 5.47261 0.204143 7.83269 1.11025 9.1321C1.5533 9.77398 2.08337 10.4775 2.78245 10.4579C3.0893 10.4457 3.31103 10.3527 3.54027 10.2565C3.80491 10.1455 4.07955 10.0303 4.50666 10.0303C4.91886 10.0303 5.18028 10.1419 5.43121 10.2489C5.67161 10.3515 5.90238 10.4499 6.24688 10.4423C6.96996 10.4315 7.42802 9.8004 7.87107 9.15852C8.3604 8.45227 8.57091 7.7598 8.59356 7.6853L8.59516 7.68005C8.59433 7.67887 8.58566 7.67479 8.57032 7.66758C8.38228 7.57926 7.19324 7.02073 7.18399 5.5597C7.17366 4.31486 8.14638 3.68246 8.30417 3.57987C8.31444 3.57319 8.32126 3.56876 8.32413 3.56655C7.70405 2.64972 6.72494 2.55285 6.39189 2.52839L6.39289 2.52741ZM11.4095 10.3757V0.732895L15.0719 0.733874C16.9582 0.733874 18.2753 2.02448 18.2753 3.90412C18.2753 5.77985 16.9312 7.07927 15.0199 7.07927H12.9247V10.3757H11.4095ZM12.9247 1.99708H14.6699C15.982 1.99708 16.7331 2.68984 16.7331 3.90804C16.7331 5.12624 15.982 5.82486 14.6599 5.82486H12.9247V1.99708ZM23.2699 9.21821C22.8679 9.97359 21.9878 10.4472 21.0347 10.4472L21.0357 10.4481C19.6305 10.4481 18.6504 9.62231 18.6504 8.37378C18.6504 7.13504 19.5985 6.42662 21.3597 6.31997L23.2449 6.20745V5.67809C23.2449 4.89238 22.7289 4.46479 21.8018 4.46479C21.0357 4.46479 20.4836 4.85226 20.3686 5.44815H19.0094C19.0504 4.19962 20.2386 3.28769 21.8428 3.28769C23.578 3.28769 24.7021 4.18886 24.7021 5.57438V10.3757H23.3019V9.21821H23.2699ZM21.4437 9.30529C20.6373 9.30433 20.1236 8.92198 20.1236 8.33758C20.1236 7.73093 20.6186 7.37379 21.5607 7.31703L23.2439 7.21527V7.76028C23.2439 8.66254 22.4693 9.30405 21.4437 9.30529ZM21.4437 9.30529L21.4467 9.30529H21.4407L21.4437 9.30529ZM29.3437 10.7524C28.7396 12.4393 28.0455 13 26.5723 13L26.5673 12.9951C26.4583 12.9951 26.0823 12.9843 25.9943 12.9599V11.8024C26.0883 11.8121 26.3173 11.8268 26.4373 11.8268C27.1044 11.8268 27.4784 11.5479 27.7135 10.8288L27.8495 10.4012L25.2862 3.38358H26.8694L28.6506 9.07535H28.6826L30.4638 3.38358H32L29.3437 10.7524Z" fill="black"/>
</svg>
