<svg width="24" height="24" viewBox="0 0 24 24" fill="none" xmlns="http://www.w3.org/2000/svg">
<path d="M19.7016 5.51885C19.5553 5.4327 19.3753 5.4267 19.2236 5.50287C19.0722 5.57923 18.9697 5.72721 18.9516 5.89587C18.9336 6.05988 18.9056 6.22385 18.8706 6.39588C17.8916 10.8389 15.9256 12.9999 12.8586 12.9999H8.35862C8.12134 13.0003 7.91706 13.1674 7.86962 13.3998L6.36962 20.4308L6.10164 22.2209C5.94756 23.0348 6.4825 23.8196 7.29643 23.9737C7.3862 23.9907 7.47728 23.9994 7.56864 23.9999H10.5786C11.2685 24.002 11.87 23.5311 12.0336 22.8608L13.2496 17.9999H15.8586C18.9376 17.9999 21.0656 15.5449 21.8506 11.0869C22.3687 8.96411 21.5115 6.74308 19.7016 5.51885Z" fill="#03A9F4"/>
<path d="M18.7587 1.78203C17.7706 0.661301 16.3527 0.0133958 14.8587 3.64138e-05H6.57868C5.33954 -0.00661982 4.28457 0.899988 4.10471 2.126L1.53372 19.277C1.41058 20.0962 1.97481 20.8601 2.79404 20.9833C2.86839 20.9945 2.94353 21 3.01871 21H6.85871C7.09599 20.9996 7.30027 20.8325 7.34771 20.6L8.76272 14H12.8627C16.4207 14 18.7717 11.513 19.8517 6.60002C19.8951 6.40418 19.9285 6.20628 19.9517 6.00701C20.2024 4.49131 19.7651 2.9427 18.7587 1.78203Z" fill="#283593"/>
</svg>
