<svg width="18" height="20" viewBox="0 0 18 20" fill="none" xmlns="http://www.w3.org/2000/svg">
<path fill-rule="evenodd" clip-rule="evenodd" d="M0 14.9709C0 13.7805 0.724713 12.7101 1.82992 12.268L5 11V15H0.0291109C0.0130335 15 0 14.987 0 14.9709ZM13 11L16.1701 12.268C17.2753 12.7101 18 13.7805 18 14.9709C18 14.987 17.987 15 17.9709 15H13V11ZM8 16C7.17595 16 6.70557 16.9408 7.2 17.6L9 20L10.8 17.6C11.2944 16.9408 10.824 16 10 16H8Z" fill="#908FEC"/>
<path d="M3.45691 12.013C2.55944 7.07692 3.983 0 9 0C14.017 0 15.4406 7.07692 14.5431 12.013L14.0276 14.8483C14.0116 14.9361 13.9351 15 13.8458 15H4.15423C4.06492 15 3.98839 14.9361 3.97241 14.8483L3.45691 12.013Z" fill="#3500D4"/>
</svg>
