<svg width="24" height="24" viewBox="0 0 24 24" fill="none" xmlns="http://www.w3.org/2000/svg">
<path fill-rule="evenodd" clip-rule="evenodd" d="M12 22C6.47715 22 2 17.5228 2 12C2 6.47715 6.47715 2 12 2C17.5228 2 22 6.47715 22 12C22 17.5228 17.5228 22 12 22Z" fill="#F61C7A"/>
<path fill-rule="evenodd" clip-rule="evenodd" d="M12.9933 4.88338C12.9355 4.38604 12.5128 4 12 4C11.4477 4 11 4.44772 11 5V6H9.9952L9.82108 6.00519C8.26435 6.09822 7 7.42914 7 9.03C7 10.5718 7.68098 11.4399 8.98729 11.9025L11 12.6899V16H9.9952L9.88061 15.9934C9.35747 15.9319 9.00137 15.4452 9.00137 14.67L8.99464 14.5534C8.93683 14.056 8.51387 13.67 8.00069 13.67C7.44802 13.67 7 14.1177 7 14.67C7 16.5264 8.20608 18 9.9952 18H11V19L11.0067 19.1166C11.0645 19.614 11.4872 20 12 20C12.5523 20 13 19.5523 13 19V18H14.0198L14.1936 17.9948C15.7455 17.9019 16.9619 16.5729 16.9619 14.97C16.9619 13.4282 16.2809 12.5601 14.9746 12.0975L13 11.325V8H14.0198L14.1332 8.00654C14.6506 8.06733 14.9986 8.5493 14.9986 9.33L15.0054 9.44662C15.0632 9.94396 15.4861 10.33 15.9993 10.33C16.552 10.33 17 9.88228 17 9.33C17 7.47124 15.809 6 14.0198 6H13V5L12.9933 4.88338ZM11 8H9.9952C9.4687 8 9.00137 8.47081 9.00137 9.03C9.00137 9.63556 9.0983 9.80238 9.57051 9.98591L9.68627 10.0288L11 10.5427V8ZM13 13.4722V16H14.0198C14.5276 16 14.9605 15.5475 14.9605 14.97C14.9605 14.3644 14.8636 14.1976 14.3913 14.0141L14.2756 13.9712L13 13.4722Z" fill="#FCDDEC"/>
</svg>
