<svg width="24" height="24" viewBox="0 0 24 24" fill="none" xmlns="http://www.w3.org/2000/svg">
<path fill-rule="evenodd" clip-rule="evenodd" d="M3.48249 14.7899C3.1871 11.2453 4.93196 7.84082 7.982 6.0108C7.99385 6.00369 8.00398 5.99404 8.01164 5.98254L8.8906 4.6641C9.58369 3.62446 10.7505 3 12 3C13.2495 3 14.4163 3.62446 15.1094 4.6641L15.9884 5.98254C15.996 5.99404 16.0061 6.00369 16.018 6.0108C19.068 7.84082 20.8129 11.2453 20.5175 14.7899L20.0558 20.3301C20.0243 20.7087 19.7077 21 19.3277 21H4.67227C4.29228 21 3.97573 20.7087 3.94417 20.33L3.48249 14.7899Z" fill="#E8F9DC"/>
<path fill-rule="evenodd" clip-rule="evenodd" d="M12 9C12.5523 9 13 8.55228 13 8C13 7.44772 12.5523 7 12 7C11.4477 7 11 7.44772 11 8C11 8.55228 11.4477 9 12 9ZM12 17C13.6569 17 15 15.6569 15 14C15 12.3431 13.6569 11 12 11C10.3431 11 9 12.3431 9 14C9 15.6569 10.3431 17 12 17Z" fill="#3500D4"/>
</svg>
