<svg width="24" height="24" viewBox="0 0 24 24" fill="none" xmlns="http://www.w3.org/2000/svg">
<path fill-rule="evenodd" clip-rule="evenodd" d="M16.825 16H15C14.4872 16 14.0645 16.386 14.0068 16.8834L14 17C14 17.5128 14.3861 17.9355 14.8834 17.9933L15 18H19L19.0344 17.9994C19.0601 17.9986 19.0859 17.9967 19.1115 17.9939L19 18C19.0538 18 19.1066 17.9958 19.158 17.9876C19.1778 17.9844 19.1978 17.9807 19.2176 17.9762L19.2293 17.9736L19.277 17.9611C19.297 17.9554 19.3169 17.949 19.3367 17.9419C19.4489 17.9019 19.5522 17.842 19.642 17.7667C19.645 17.7642 19.6479 17.7617 19.6508 17.7593L19.6653 17.7466C19.6893 17.7252 19.7122 17.7027 19.734 17.6792L19.6508 17.7593C19.6868 17.7284 19.72 17.6956 19.7505 17.6611C19.7706 17.6382 19.7899 17.6141 19.8081 17.5892C19.8141 17.5813 19.8198 17.5733 19.8253 17.5651C19.841 17.5421 19.8558 17.5185 19.8696 17.4942C19.8764 17.4824 19.8829 17.4704 19.8892 17.4582C19.8993 17.4386 19.9087 17.4186 19.9176 17.3983C19.9243 17.3827 19.9305 17.3672 19.9364 17.3516C19.9459 17.3265 19.9543 17.3009 19.9618 17.2749C19.9643 17.2653 19.9669 17.2559 19.9693 17.2465C19.9801 17.2043 19.9882 17.1609 19.9933 17.1166L20 17V13C20 12.4477 19.5523 12 19 12C18.4872 12 18.0645 12.386 18.0068 12.8834L18 13L18 14.298L13.7593 9.34921C13.4073 8.93853 12.7998 8.88683 12.385 9.21132L12.2929 9.29289L10.067 11.518L5.76825 6.35982C5.44188 5.96818 4.87949 5.8892 4.46119 6.15746L4.35984 6.23178C3.9682 6.55815 3.88923 7.12054 4.15749 7.53883L4.2318 7.64018L9.2318 13.6402C9.58136 14.0597 10.1953 14.1163 10.6141 13.7894L10.7071 13.7071L12.943 11.472L16.825 16Z" fill="white"/>
</svg>
