<svg width="28" height="32" viewBox="0 0 28 32" fill="none" xmlns="http://www.w3.org/2000/svg">
<path fill-rule="evenodd" clip-rule="evenodd" d="M22.7634 30.7114C21.0055 32.3959 19.0659 32.1333 17.2172 31.339C15.2517 30.5288 13.4548 30.4776 11.379 31.339C8.79404 32.4407 7.42208 32.1204 5.86524 30.7114C-2.92438 21.7766 -1.62702 8.16621 8.36266 7.65382C10.7855 7.78192 12.4818 8.97643 13.9089 9.07571C16.0301 8.64978 18.0604 7.42965 20.3308 7.58977C23.0585 7.80754 25.0986 8.87075 26.4609 10.7826C20.8498 14.1131 22.1796 21.4147 27.3333 23.4643C26.3019 26.1383 24.9786 28.7803 22.7601 30.7338L22.7634 30.7114ZM13.7143 7.55775C13.4516 3.58673 16.7112 0.320244 20.4606 0C20.9763 4.57948 16.2441 8.00609 13.7143 7.55775Z" fill="#03314B"/>
</svg>
