<svg width="272" height="80" viewBox="0 0 272 80" fill="none" xmlns="http://www.w3.org/2000/svg">
<path d="M0 76C0 72.6863 2.68629 70 6 70C9.31371 70 12 72.6863 12 76V79.2308C12 79.6556 11.6556 80 11.2308 80H0.769231C0.344397 80 0 79.6556 0 79.2308V76Z" fill="#908FEC"/>
<path d="M20 66C20 62.6863 22.6863 60 26 60C29.3137 60 32 62.6863 32 66V78.4615C32 79.3112 31.3112 80 30.4615 80H21.5385C20.6888 80 20 79.3112 20 78.4615V66Z" fill="#908FEC"/>
<path d="M40 50C40 46.6863 42.6863 44 46 44C49.3137 44 52 46.6863 52 50V78C52 79.1046 51.1046 80 50 80H42C40.8954 80 40 79.1046 40 78V50Z" fill="#908FEC"/>
<path d="M60 63C60 59.6863 62.6863 57 66 57C69.3137 57 72 59.6863 72 63V78.2308C72 79.2079 71.2079 80 70.2308 80H61.7692C60.7921 80 60 79.2079 60 78.2308V63Z" fill="#908FEC"/>
<path d="M80 76C80 72.6863 82.6863 70 86 70C89.3137 70 92 72.6863 92 76V79.2308C92 79.6556 91.6556 80 91.2308 80H80.7692C80.3444 80 80 79.6556 80 79.2308V76Z" fill="#908FEC"/>
<path d="M100 68C100 64.6863 102.686 62 106 62C109.314 62 112 64.6863 112 68V78.6154C112 79.3801 111.38 80 110.615 80H101.385C100.62 80 100 79.3801 100 78.6154V68Z" fill="#908FEC"/>
<path d="M120 38C120 34.6863 122.686 32 126 32C129.314 32 132 34.6863 132 38V78C132 79.1046 131.105 80 130 80H122C120.895 80 120 79.1046 120 78V38Z" fill="#908FEC"/>
<path d="M140 22C140 18.6863 142.686 16 146 16C149.314 16 152 18.6863 152 22V78C152 79.1046 151.105 80 150 80H142C140.895 80 140 79.1046 140 78V22Z" fill="#908FEC"/>
<path d="M160 6C160 2.68629 162.686 0 166 0C169.314 0 172 2.68629 172 6V78C172 79.1046 171.105 80 170 80H162C160.895 80 160 79.1046 160 78V6Z" fill="#908FEC"/>
<path d="M180 18C180 14.6863 182.686 12 186 12C189.314 12 192 14.6863 192 18V78C192 79.1046 191.105 80 190 80H182C180.895 80 180 79.1046 180 78V18Z" fill="#908FEC"/>
<path d="M200 46C200 42.6863 202.686 40 206 40C209.314 40 212 42.6863 212 46V78C212 79.1046 211.105 80 210 80H202C200.895 80 200 79.1046 200 78V46Z" fill="#908FEC"/>
<path d="M220 32C220 28.6863 222.686 26 226 26C229.314 26 232 28.6863 232 32V78C232 79.1046 231.105 80 230 80H222C220.895 80 220 79.1046 220 78V32Z" fill="#908FEC"/>
<path d="M240 16C240 12.6863 242.686 10 246 10C249.314 10 252 12.6863 252 16V78C252 79.1046 251.105 80 250 80H242C240.895 80 240 79.1046 240 78V16Z" fill="#908FEC"/>
<path d="M260 72C260 68.6863 262.686 66 266 66C269.314 66 272 68.6863 272 72V78.9231C272 79.5178 271.518 80 270.923 80H261.077C260.482 80 260 79.5178 260 78.9231V72Z" fill="#908FEC"/>
</svg>
