<svg width="40" height="41" viewBox="0 0 40 41" fill="none" xmlns="http://www.w3.org/2000/svg">
<path d="M40.0001 20.9614C40.0001 19.6118 39.8809 18.3306 39.6766 17.0835H20.4343V24.7881H31.4518C30.958 27.3164 29.5105 29.4518 27.3649 30.9039V36.0289H33.9379C37.7864 32.4585 40.0001 27.1968 40.0001 20.9614Z" fill="#4285F4"/>
<path d="M20.4343 41C25.9516 41 30.5663 39.155 33.9379 36.0288L27.3649 30.9038C25.5259 32.1338 23.1929 32.8854 20.4343 32.8854C15.1044 32.8854 10.5918 29.2809 8.97413 24.4121H2.19678V29.6909C5.5514 36.3875 12.4479 41 20.4343 41Z" fill="#34A853"/>
<path d="M8.97403 24.412C8.54832 23.182 8.32695 21.8666 8.32695 20.4999C8.32695 19.1332 8.56535 17.8178 8.97403 16.5878V11.3091H2.19668C0.800341 14.0766 0 17.1857 0 20.4999C0 23.8141 0.800341 26.9232 2.19668 29.6907L8.97403 24.412Z" fill="#FBBC05"/>
<path d="M20.4343 8.11458C23.4484 8.11458 26.1389 9.15667 28.2674 11.1896L34.0912 5.34708C30.5663 2.03292 25.9516 0 20.4343 0C12.4479 0 5.5514 4.6125 2.19678 11.3092L8.97413 16.5879C10.5918 11.7192 15.1044 8.11458 20.4343 8.11458Z" fill="#EA4335"/>
</svg>
