<svg width="48" height="48" viewBox="0 0 48 48" fill="none" xmlns="http://www.w3.org/2000/svg">
<path fill-rule="evenodd" clip-rule="evenodd" d="M24 48C37.2548 48 48 37.2548 48 24C48 10.7452 37.2548 0 24 0C10.7452 0 0 10.7452 0 24C0 37.2548 10.7452 48 24 48ZM34.4066 24L33.3423 30.937H27.7503V47.7078C25.2653 48.0974 22.7347 48.0974 20.2497 47.7078V30.937H14.1558V24H20.2497V18.7127C20.2497 12.697 23.833 9.37461 29.3155 9.37461C31.1152 9.3997 32.9106 9.55664 34.6873 9.84417V15.7503H31.6612C28.68 15.7503 27.7503 17.6003 27.7503 19.4984V24H34.4066Z" fill="#1D4BFF"/>
</svg>
